<svg width="97" height="102" viewBox="0 0 97 102" fill="none" xmlns="http://www.w3.org/2000/svg">
<path d="M7.06108 9.13849C8.81534 9.14205 9.86293 7.7571 9.86293 5.37074C9.86293 2.99858 8.80824 1.62784 7.06108 1.62784C5.31392 1.62784 4.26278 2.99503 4.25923 5.37074C4.25923 7.75355 5.30682 9.13849 7.06108 9.13849ZM7.06108 8.02699C6.15554 8.02699 5.58736 7.1179 5.59091 5.37074C5.59446 3.63778 6.15909 2.72514 7.06108 2.72514C7.96662 2.72514 8.53125 3.63778 8.5348 5.37074C8.5348 7.1179 7.97017 8.02699 7.06108 8.02699ZM14.0009 1.72727H12.7473L10.9398 2.88849V4.09588L12.6408 3.00923H12.6834V9H14.0009V1.72727ZM18.8056 1.72727H17.552L15.7445 2.88849V4.09588L17.4455 3.00923H17.4881V9H18.8056V1.72727ZM23.3404 9.13849C25.0946 9.14205 26.1422 7.7571 26.1422 5.37074C26.1422 2.99858 25.0875 1.62784 23.3404 1.62784C21.5932 1.62784 20.5421 2.99503 20.5385 5.37074C20.5385 7.75355 21.5861 9.13849 23.3404 9.13849ZM23.3404 8.02699C22.4348 8.02699 21.8667 7.1179 21.8702 5.37074C21.8738 3.63778 22.4384 2.72514 23.3404 2.72514C24.2459 2.72514 24.8105 3.63778 24.8141 5.37074C24.8141 7.1179 24.2495 8.02699 23.3404 8.02699ZM30.0103 9.13849C31.7646 9.14205 32.8121 7.7571 32.8121 5.37074C32.8121 2.99858 31.7575 1.62784 30.0103 1.62784C28.2631 1.62784 27.212 2.99503 27.2085 5.37074C27.2085 7.75355 28.256 9.13849 30.0103 9.13849ZM30.0103 8.02699C29.1048 8.02699 28.5366 7.1179 28.5401 5.37074C28.5437 3.63778 29.1083 2.72514 30.0103 2.72514C30.9158 2.72514 31.4805 3.63778 31.484 5.37074C31.484 7.1179 30.9194 8.02699 30.0103 8.02699ZM36.6802 9.13849C38.4345 9.14205 39.4821 7.7571 39.4821 5.37074C39.4821 2.99858 38.4274 1.62784 36.6802 1.62784C34.9331 1.62784 33.8819 2.99503 33.8784 5.37074C33.8784 7.75355 34.926 9.13849 36.6802 9.13849ZM36.6802 8.02699C35.7747 8.02699 35.2065 7.1179 35.21 5.37074C35.2136 3.63778 35.7782 2.72514 36.6802 2.72514C37.5858 2.72514 38.1504 3.63778 38.1539 5.37074C38.1539 7.1179 37.5893 8.02699 36.6802 8.02699ZM43.62 1.72727H42.3665L40.5589 2.88849V4.09588L42.2599 3.00923H42.3026V9H43.62V1.72727ZM48.4247 1.72727H47.1712L45.3636 2.88849V4.09588L47.0646 3.00923H47.1072V9H48.4247V1.72727ZM55.44 9.13849C57.1942 9.14205 58.2418 7.7571 58.2418 5.37074C58.2418 2.99858 57.1871 1.62784 55.44 1.62784C53.6928 1.62784 52.6417 2.99503 52.6381 5.37074C52.6381 7.75355 53.6857 9.13849 55.44 9.13849ZM55.44 8.02699C54.5344 8.02699 53.9663 7.1179 53.9698 5.37074C53.9734 3.63778 54.538 2.72514 55.44 2.72514C56.3455 2.72514 56.9102 3.63778 56.9137 5.37074C56.9137 7.1179 56.3491 8.02699 55.44 8.02699ZM62.3798 1.72727H61.1262L59.3187 2.88849V4.09588L61.0197 3.00923H61.0623V9H62.3798V1.72727ZM67.1845 1.72727H65.9309L64.1234 2.88849V4.09588L65.8244 3.00923H65.867V9H67.1845V1.72727ZM71.7193 9.13849C73.4735 9.14205 74.5211 7.7571 74.5211 5.37074C74.5211 2.99858 73.4664 1.62784 71.7193 1.62784C69.9721 1.62784 68.921 2.99503 68.9174 5.37074C68.9174 7.75355 69.965 9.13849 71.7193 9.13849ZM71.7193 8.02699C70.8137 8.02699 70.2456 7.1179 70.2491 5.37074C70.2527 3.63778 70.8173 2.72514 71.7193 2.72514C72.6248 2.72514 73.1895 3.63778 73.193 5.37074C73.193 7.1179 72.6284 8.02699 71.7193 8.02699ZM78.6591 1.72727H77.4055L75.598 2.88849V4.09588L77.299 3.00923H77.3416V9H78.6591V1.72727ZM83.4638 1.72727H82.2102L80.4027 2.88849V4.09588L82.1037 3.00923H82.1463V9H83.4638V1.72727ZM88.2685 1.72727H87.0149L85.2074 2.88849V4.09588L86.9084 3.00923H86.951V9H88.2685V1.72727ZM93.0732 1.72727H91.8196L90.0121 2.88849V4.09588L91.7131 3.00923H91.7557V9H93.0732V1.72727ZM4.26323 100.138C6.01749 100.142 7.06507 98.7571 7.06507 96.3707C7.06507 93.9986 6.01039 92.6278 4.26323 92.6278C2.51607 92.6278 1.46493 93.995 1.46138 96.3707C1.46138 98.7536 2.50897 100.138 4.26323 100.138ZM4.26323 99.027C3.35769 99.027 2.78951 98.1179 2.79306 96.3707C2.79661 94.6378 3.36124 93.7251 4.26323 93.7251C5.16877 93.7251 5.7334 94.6378 5.73695 96.3707C5.73695 98.1179 5.17232 99.027 4.26323 99.027ZM11.203 92.7273H9.94949L8.14196 93.8885V95.0959L9.84295 94.0092H9.88556V100H11.203V92.7273ZM16.0077 92.7273H14.7542L12.9466 93.8885V95.0959L14.6476 94.0092H14.6903V100H16.0077V92.7273ZM20.5425 100.138C22.2968 100.142 23.3444 98.7571 23.3444 96.3707C23.3444 93.9986 22.2897 92.6278 20.5425 92.6278C18.7954 92.6278 17.7442 93.995 17.7407 96.3707C17.7407 98.7536 18.7883 100.138 20.5425 100.138ZM20.5425 99.027C19.637 99.027 19.0688 98.1179 19.0724 96.3707C19.0759 94.6378 19.6405 93.7251 20.5425 93.7251C21.4481 93.7251 22.0127 94.6378 22.0162 96.3707C22.0162 98.1179 21.4516 99.027 20.5425 99.027ZM27.2124 100.138C28.9667 100.142 30.0143 98.7571 30.0143 96.3707C30.0143 93.9986 28.9596 92.6278 27.2124 92.6278C25.4653 92.6278 24.4142 93.995 24.4106 96.3707C24.4106 98.7536 25.4582 100.138 27.2124 100.138ZM27.2124 99.027C26.3069 99.027 25.7387 98.1179 25.7423 96.3707C25.7458 94.6378 26.3105 93.7251 27.2124 93.7251C28.118 93.7251 28.6826 94.6378 28.6862 96.3707C28.6862 98.1179 28.1215 99.027 27.2124 99.027ZM34.1523 92.7273H32.8987L31.0912 93.8885V95.0959L32.7922 94.0092H32.8348V100H34.1523V92.7273ZM38.6871 100.138C40.4413 100.142 41.4889 98.7571 41.4889 96.3707C41.4889 93.9986 40.4342 92.6278 38.6871 92.6278C36.9399 92.6278 35.8888 93.995 35.8852 96.3707C35.8852 98.7536 36.9328 100.138 38.6871 100.138ZM38.6871 99.027C37.7815 99.027 37.2133 98.1179 37.2169 96.3707C37.2204 94.6378 37.7851 93.7251 38.6871 93.7251C39.5926 93.7251 40.1572 94.6378 40.1608 96.3707C40.1608 98.1179 39.5961 99.027 38.6871 99.027ZM45.357 100.138C47.1112 100.142 48.1588 98.7571 48.1588 96.3707C48.1588 93.9986 47.1041 92.6278 45.357 92.6278C43.6098 92.6278 42.5587 93.995 42.5551 96.3707C42.5551 98.7536 43.6027 100.138 45.357 100.138ZM45.357 99.027C44.4514 99.027 43.8833 98.1179 43.8868 96.3707C43.8904 94.6378 44.455 93.7251 45.357 93.7251C46.2625 93.7251 46.8271 94.6378 46.8307 96.3707C46.8307 98.1179 46.2661 99.027 45.357 99.027ZM54.5074 100.138C56.2616 100.142 57.3092 98.7571 57.3092 96.3707C57.3092 93.9986 56.2545 92.6278 54.5074 92.6278C52.7602 92.6278 51.7091 93.995 51.7055 96.3707C51.7055 98.7536 52.7531 100.138 54.5074 100.138ZM54.5074 99.027C53.6018 99.027 53.0336 98.1179 53.0372 96.3707C53.0407 94.6378 53.6054 93.7251 54.5074 93.7251C55.4129 93.7251 55.9775 94.6378 55.9811 96.3707C55.9811 98.1179 55.4165 99.027 54.5074 99.027ZM61.4472 92.7273H60.1936L58.3861 93.8885V95.0959L60.0871 94.0092H60.1297V100H61.4472V92.7273ZM66.2519 92.7273H64.9983L63.1908 93.8885V95.0959L64.8918 94.0092H64.9344V100H66.2519V92.7273ZM70.7867 100.138C72.5409 100.142 73.5885 98.7571 73.5885 96.3707C73.5885 93.9986 72.5338 92.6278 70.7867 92.6278C69.0395 92.6278 67.9884 93.995 67.9848 96.3707C67.9848 98.7536 69.0324 100.138 70.7867 100.138ZM70.7867 99.027C69.8811 99.027 69.3129 98.1179 69.3165 96.3707C69.32 94.6378 69.8847 93.7251 70.7867 93.7251C71.6922 93.7251 72.2568 94.6378 72.2604 96.3707C72.2604 98.1179 71.6958 99.027 70.7867 99.027ZM77.4566 100.138C79.2108 100.142 80.2584 98.7571 80.2584 96.3707C80.2584 93.9986 79.2037 92.6278 77.4566 92.6278C75.7094 92.6278 74.6583 93.995 74.6547 96.3707C74.6547 98.7536 75.7023 100.138 77.4566 100.138ZM77.4566 99.027C76.551 99.027 75.9829 98.1179 75.9864 96.3707C75.99 94.6378 76.5546 93.7251 77.4566 93.7251C78.3621 93.7251 78.9268 94.6378 78.9303 96.3707C78.9303 98.1179 78.3657 99.027 77.4566 99.027ZM84.3964 92.7273H83.1428L81.3353 93.8885V95.0959L83.0363 94.0092H83.0789V100H84.3964V92.7273ZM88.9312 100.138C90.6855 100.142 91.733 98.7571 91.733 96.3707C91.733 93.9986 90.6784 92.6278 88.9312 92.6278C87.184 92.6278 86.1329 93.995 86.1294 96.3707C86.1294 98.7536 87.1769 100.138 88.9312 100.138ZM88.9312 99.027C88.0257 99.027 87.4575 98.1179 87.461 96.3707C87.4646 94.6378 88.0292 93.7251 88.9312 93.7251C89.8367 93.7251 90.4014 94.6378 90.4049 96.3707C90.4049 98.1179 89.8403 99.027 88.9312 99.027ZM95.871 92.7273H94.6175L92.8099 93.8885V95.0959L94.5109 94.0092H94.5535V100H95.871V92.7273Z" fill="#1F2933"/>
<path d="M7.06108 9.13849L7.0631 8.13849H7.06108V9.13849ZM4.25923 5.37074L3.25923 5.36924V5.37074H4.25923ZM5.59091 5.37074L4.59091 5.36869V5.36871L5.59091 5.37074ZM8.5348 5.37074H9.5348L9.5348 5.36869L8.5348 5.37074ZM7.05906 10.1385C8.23185 10.1409 9.23867 9.66264 9.92098 8.74933C10.5752 7.87365 10.8629 6.69248 10.8629 5.37074H8.86293C8.86293 6.43536 8.62689 7.13984 8.31873 7.55234C8.03867 7.92721 7.64457 8.13967 7.0631 8.1385L7.05906 10.1385ZM10.8629 5.37074C10.8629 4.05352 10.5723 2.87835 9.91559 2.0076C9.23185 1.10099 8.22675 0.627841 7.06108 0.627841V2.62784C7.64257 2.62784 8.03839 2.84006 8.31879 3.21186C8.62623 3.61952 8.86293 4.3158 8.86293 5.37074H10.8629ZM7.06108 0.627841C5.89597 0.627841 4.89147 1.09968 4.20784 2.00636C3.55165 2.87663 3.2612 4.05153 3.25923 5.36924L5.25923 5.37223C5.26081 4.31423 5.49771 3.61769 5.80477 3.21044C6.08438 2.8396 6.47903 2.62784 7.06108 2.62784V0.627841ZM3.25923 5.37074C3.25923 6.6911 3.54716 7.87121 4.20118 8.74667C4.88303 9.65936 5.88894 10.1385 7.06108 10.1385V8.13849C6.47896 8.13849 6.08395 7.92516 5.80343 7.54967C5.4951 7.13696 5.25923 6.43319 5.25923 5.37074H3.25923ZM7.06108 7.02699C7.01448 7.02699 6.95478 7.03537 6.85322 6.85772C6.72117 6.62675 6.5893 6.16217 6.59091 5.37277L4.59091 5.36871C4.58896 6.32647 4.73941 7.19001 5.11695 7.85037C5.52498 8.56406 6.20214 9.02699 7.06108 9.02699V7.02699ZM6.59091 5.37279C6.59251 4.59024 6.7245 4.12648 6.85716 3.8945C6.96012 3.71445 7.01955 3.72514 7.06108 3.72514V1.72514C6.20062 1.72514 5.52674 2.19215 5.121 2.90166C4.74496 3.55924 4.59286 4.41828 4.59091 5.36869L6.59091 5.37279ZM7.06108 3.72514C7.10593 3.72514 7.16585 3.716 7.26848 3.89515C7.40117 4.12679 7.5332 4.59014 7.5348 5.37279L9.5348 5.36869C9.53285 4.41838 9.38079 3.55894 9.0039 2.90101C8.59694 2.19061 7.92177 1.72514 7.06108 1.72514V3.72514ZM7.5348 5.37074C7.5348 6.16147 7.40293 6.62645 7.27071 6.85772C7.1696 7.03459 7.11026 7.02699 7.06108 7.02699V9.02699C7.92099 9.02699 8.59851 8.56484 9.00699 7.85037C9.38435 7.19031 9.5348 6.32717 9.5348 5.37074H7.5348ZM14.0009 1.72727H15.0009V0.727273H14.0009V1.72727ZM12.7473 1.72727V0.727273H12.4538L12.2068 0.885933L12.7473 1.72727ZM10.9398 2.88849L10.3993 2.04715L9.93981 2.34235V2.88849H10.9398ZM10.9398 4.09588H9.93981V5.92135L11.4782 4.9386L10.9398 4.09588ZM12.6408 3.00923V2.00923H12.3486L12.1024 2.16651L12.6408 3.00923ZM12.6834 3.00923H13.6834V2.00923H12.6834V3.00923ZM12.6834 9H11.6834V10H12.6834V9ZM14.0009 9V10H15.0009V9H14.0009ZM14.0009 0.727273H12.7473V2.72727H14.0009V0.727273ZM12.2068 0.885933L10.3993 2.04715L11.4803 3.72983L13.2878 2.56861L12.2068 0.885933ZM9.93981 2.88849V4.09588H11.9398V2.88849H9.93981ZM11.4782 4.9386L13.1792 3.85195L12.1024 2.16651L10.4015 3.25316L11.4782 4.9386ZM12.6408 4.00923H12.6834V2.00923H12.6408V4.00923ZM11.6834 3.00923V9H13.6834V3.00923H11.6834ZM12.6834 10H14.0009V8H12.6834V10ZM15.0009 9V1.72727H13.0009V9H15.0009ZM18.8056 1.72727H19.8056V0.727273H18.8056V1.72727ZM17.552 1.72727V0.727273H17.2585L17.0115 0.885933L17.552 1.72727ZM15.7445 2.88849L15.204 2.04715L14.7445 2.34235V2.88849H15.7445ZM15.7445 4.09588H14.7445V5.92135L16.2829 4.9386L15.7445 4.09588ZM17.4455 3.00923V2.00923H17.1533L16.9071 2.16651L17.4455 3.00923ZM17.4881 3.00923H18.4881V2.00923H17.4881V3.00923ZM17.4881 9H16.4881V10H17.4881V9ZM18.8056 9V10H19.8056V9H18.8056ZM18.8056 0.727273H17.552V2.72727H18.8056V0.727273ZM17.0115 0.885933L15.204 2.04715L16.285 3.72983L18.0925 2.56861L17.0115 0.885933ZM14.7445 2.88849V4.09588H16.7445V2.88849H14.7445ZM16.2829 4.9386L17.9838 3.85195L16.9071 2.16651L15.2061 3.25316L16.2829 4.9386ZM17.4455 4.00923H17.4881V2.00923H17.4455V4.00923ZM16.4881 3.00923V9H18.4881V3.00923H16.4881ZM17.4881 10H18.8056V8H17.4881V10ZM19.8056 9V1.72727H17.8056V9H19.8056ZM23.3404 9.13849L23.3424 8.13849H23.3404V9.13849ZM20.5385 5.37074L19.5385 5.36924V5.37074H20.5385ZM21.8702 5.37074L20.8702 5.36869V5.36871L21.8702 5.37074ZM24.8141 5.37074H25.8141L25.8141 5.36869L24.8141 5.37074ZM23.3384 10.1385C24.5112 10.1409 25.518 9.66264 26.2003 8.74933C26.8545 7.87365 27.1422 6.69248 27.1422 5.37074H25.1422C25.1422 6.43536 24.9062 7.13984 24.598 7.55234C24.318 7.92721 23.9239 8.13967 23.3424 8.1385L23.3384 10.1385ZM27.1422 5.37074C27.1422 4.05352 26.8516 2.87835 26.1949 2.0076C25.5111 1.10099 24.5061 0.627841 23.3404 0.627841V2.62784C23.9219 2.62784 24.3177 2.84006 24.5981 3.21186C24.9055 3.61952 25.1422 4.3158 25.1422 5.37074H27.1422ZM23.3404 0.627841C22.1753 0.627841 21.1708 1.09968 20.4871 2.00636C19.831 2.87663 19.5405 4.05153 19.5385 5.36924L21.5385 5.37223C21.5401 4.31423 21.777 3.61769 22.0841 3.21044C22.3637 2.8396 22.7583 2.62784 23.3404 2.62784V0.627841ZM19.5385 5.37074C19.5385 6.6911 19.8265 7.87121 20.4805 8.74667C21.1623 9.65936 22.1682 10.1385 23.3404 10.1385V8.13849C22.7583 8.13849 22.3632 7.92516 22.0827 7.54967C21.7744 7.13696 21.5385 6.43319 21.5385 5.37074H19.5385ZM23.3404 7.02699C23.2938 7.02699 23.2341 7.03537 23.1325 6.85772C23.0005 6.62675 22.8686 6.16217 22.8702 5.37277L20.8702 5.36871C20.8683 6.32647 21.0187 7.19001 21.3962 7.85037C21.8043 8.56406 22.4814 9.02699 23.3404 9.02699V7.02699ZM22.8702 5.37279C22.8718 4.59024 23.0038 4.12648 23.1365 3.8945C23.2394 3.71445 23.2989 3.72514 23.3404 3.72514V1.72514C22.4799 1.72514 21.806 2.19215 21.4003 2.90166C21.0243 3.55924 20.8722 4.41828 20.8702 5.36869L22.8702 5.37279ZM23.3404 3.72514C23.3852 3.72514 23.4451 3.716 23.5478 3.89515C23.6805 4.12679 23.8125 4.59014 23.8141 5.37279L25.8141 5.36869C25.8121 4.41838 25.6601 3.55894 25.2832 2.90101C24.8762 2.19061 24.2011 1.72514 23.3404 1.72514V3.72514ZM23.8141 5.37074C23.8141 6.16147 23.6822 6.62645 23.55 6.85772C23.4489 7.03459 23.3896 7.02699 23.3404 7.02699V9.02699C24.2003 9.02699 24.8778 8.56484 25.2863 7.85037C25.6637 7.19031 25.8141 6.32717 25.8141 5.37074H23.8141ZM30.0103 9.13849L30.0123 8.13849H30.0103V9.13849ZM27.2085 5.37074L26.2085 5.36924V5.37074H27.2085ZM28.5401 5.37074L27.5401 5.36869V5.36871L28.5401 5.37074ZM31.484 5.37074H32.484L32.484 5.36869L31.484 5.37074ZM30.0083 10.1385C31.1811 10.1409 32.1879 9.66264 32.8702 8.74933C33.5244 7.87365 33.8121 6.69248 33.8121 5.37074H31.8121C31.8121 6.43536 31.5761 7.13984 31.2679 7.55234C30.9879 7.92721 30.5938 8.13967 30.0123 8.1385L30.0083 10.1385ZM33.8121 5.37074C33.8121 4.05352 33.5215 2.87835 32.8648 2.0076C32.1811 1.10099 31.176 0.627841 30.0103 0.627841V2.62784C30.5918 2.62784 30.9876 2.84006 31.268 3.21186C31.5755 3.61952 31.8121 4.3158 31.8121 5.37074H33.8121ZM30.0103 0.627841C28.8452 0.627841 27.8407 1.09968 27.1571 2.00636C26.5009 2.87663 26.2104 4.05153 26.2085 5.36924L28.2085 5.37223C28.21 4.31423 28.4469 3.61769 28.754 3.21044C29.0336 2.8396 29.4282 2.62784 30.0103 2.62784V0.627841ZM26.2085 5.37074C26.2085 6.6911 26.4964 7.87121 27.1504 8.74667C27.8322 9.65936 28.8382 10.1385 30.0103 10.1385V8.13849C29.4282 8.13849 29.0332 7.92516 28.7527 7.54967C28.4443 7.13696 28.2085 6.43319 28.2085 5.37074H26.2085ZM30.0103 7.02699C29.9637 7.02699 29.904 7.03537 29.8024 6.85772C29.6704 6.62675 29.5385 6.16217 29.5401 5.37277L27.5401 5.36871C27.5382 6.32647 27.6886 7.19001 28.0662 7.85037C28.4742 8.56406 29.1514 9.02699 30.0103 9.02699V7.02699ZM29.5401 5.37279C29.5417 4.59024 29.6737 4.12648 29.8064 3.8945C29.9093 3.71445 29.9688 3.72514 30.0103 3.72514V1.72514C29.1498 1.72514 28.476 2.19215 28.0702 2.90166C27.6942 3.55924 27.5421 4.41828 27.5401 5.36869L29.5401 5.37279ZM30.0103 3.72514C30.0551 3.72514 30.1151 3.716 30.2177 3.89515C30.3504 4.12679 30.4824 4.59014 30.484 5.37279L32.484 5.36869C32.4821 4.41838 32.33 3.55894 31.9531 2.90101C31.5462 2.19061 30.871 1.72514 30.0103 1.72514V3.72514ZM30.484 5.37074C30.484 6.16147 30.3522 6.62645 30.2199 6.85772C30.1188 7.03459 30.0595 7.02699 30.0103 7.02699V9.02699C30.8702 9.02699 31.5477 8.56484 31.9562 7.85037C32.3336 7.19031 32.484 6.32717 32.484 5.37074H30.484ZM36.6802 9.13849L36.6822 8.13849H36.6802V9.13849ZM33.8784 5.37074L32.8784 5.36924V5.37074H33.8784ZM35.21 5.37074L34.2101 5.36869V5.36871L35.21 5.37074ZM38.1539 5.37074H39.1539L39.1539 5.36869L38.1539 5.37074ZM36.6782 10.1385C37.851 10.1409 38.8578 9.66264 39.5401 8.74933C40.1943 7.87365 40.4821 6.69248 40.4821 5.37074H38.4821C38.4821 6.43536 38.246 7.13984 37.9379 7.55234C37.6578 7.92721 37.2637 8.13967 36.6822 8.1385L36.6782 10.1385ZM40.4821 5.37074C40.4821 4.05352 40.1914 2.87835 39.5347 2.0076C38.851 1.10099 37.8459 0.627841 36.6802 0.627841V2.62784C37.2617 2.62784 37.6575 2.84006 37.9379 3.21186C38.2454 3.61952 38.4821 4.3158 38.4821 5.37074H40.4821ZM36.6802 0.627841C35.5151 0.627841 34.5106 1.09968 33.827 2.00636C33.1708 2.87663 32.8803 4.05153 32.8784 5.36924L34.8784 5.37223C34.88 4.31423 35.1168 3.61769 35.4239 3.21044C35.7035 2.8396 36.0982 2.62784 36.6802 2.62784V0.627841ZM32.8784 5.37074C32.8784 6.6911 33.1663 7.87121 33.8203 8.74667C34.5022 9.65936 35.5081 10.1385 36.6802 10.1385V8.13849C36.0981 8.13849 35.7031 7.92516 35.4226 7.54967C35.1142 7.13696 34.8784 6.43319 34.8784 5.37074H32.8784ZM36.6802 7.02699C36.6336 7.02699 36.5739 7.03537 36.4724 6.85772C36.3403 6.62675 36.2084 6.16217 36.21 5.37277L34.2101 5.36871C34.2081 6.32647 34.3585 7.19001 34.7361 7.85037C35.1441 8.56406 35.8213 9.02699 36.6802 9.02699V7.02699ZM36.21 5.37279C36.2117 4.59024 36.3436 4.12648 36.4763 3.8945C36.5793 3.71445 36.6387 3.72514 36.6802 3.72514V1.72514C35.8198 1.72514 35.1459 2.19215 34.7401 2.90166C34.3641 3.55924 34.212 4.41828 34.2101 5.36869L36.21 5.37279ZM36.6802 3.72514C36.7251 3.72514 36.785 3.716 36.8876 3.89515C37.0203 4.12679 37.1523 4.59014 37.1539 5.37279L39.1539 5.36869C39.152 4.41838 38.9999 3.55894 38.623 2.90101C38.2161 2.19061 37.5409 1.72514 36.6802 1.72514V3.72514ZM37.1539 5.37074C37.1539 6.16147 37.0221 6.62645 36.8899 6.85772C36.7887 7.03459 36.7294 7.02699 36.6802 7.02699V9.02699C37.5401 9.02699 38.2177 8.56484 38.6261 7.85037C39.0035 7.19031 39.1539 6.32717 39.1539 5.37074H37.1539ZM43.62 1.72727H44.62V0.727273H43.62V1.72727ZM42.3665 1.72727V0.727273H42.0729L41.826 0.885933L42.3665 1.72727ZM40.5589 2.88849L40.0184 2.04715L39.5589 2.34235V2.88849H40.5589ZM40.5589 4.09588H39.5589V5.92135L41.0973 4.9386L40.5589 4.09588ZM42.2599 3.00923V2.00923H41.9678L41.7216 2.16651L42.2599 3.00923ZM42.3026 3.00923H43.3026V2.00923H42.3026V3.00923ZM42.3026 9H41.3026V10H42.3026V9ZM43.62 9V10H44.62V9H43.62ZM43.62 0.727273H42.3665V2.72727H43.62V0.727273ZM41.826 0.885933L40.0184 2.04715L41.0995 3.72983L42.907 2.56861L41.826 0.885933ZM39.5589 2.88849V4.09588H41.5589V2.88849H39.5589ZM41.0973 4.9386L42.7983 3.85195L41.7216 2.16651L40.0206 3.25316L41.0973 4.9386ZM42.2599 4.00923H42.3026V2.00923H42.2599V4.00923ZM41.3026 3.00923V9H43.3026V3.00923H41.3026ZM42.3026 10H43.62V8H42.3026V10ZM44.62 9V1.72727H42.62V9H44.62ZM48.4247 1.72727H49.4247V0.727273H48.4247V1.72727ZM47.1712 1.72727V0.727273H46.8776L46.6307 0.885933L47.1712 1.72727ZM45.3636 2.88849L44.8231 2.04715L44.3636 2.34235V2.88849H45.3636ZM45.3636 4.09588H44.3636V5.92135L45.902 4.9386L45.3636 4.09588ZM47.0646 3.00923V2.00923H46.7725L46.5263 2.16651L47.0646 3.00923ZM47.1072 3.00923H48.1072V2.00923H47.1072V3.00923ZM47.1072 9H46.1072V10H47.1072V9ZM48.4247 9V10H49.4247V9H48.4247ZM48.4247 0.727273H47.1712V2.72727H48.4247V0.727273ZM46.6307 0.885933L44.8231 2.04715L45.9041 3.72983L47.7117 2.56861L46.6307 0.885933ZM44.3636 2.88849V4.09588H46.3636V2.88849H44.3636ZM45.902 4.9386L47.603 3.85195L46.5263 2.16651L44.8253 3.25316L45.902 4.9386ZM47.0646 4.00923H47.1072V2.00923H47.0646V4.00923ZM46.1072 3.00923V9H48.1072V3.00923H46.1072ZM47.1072 10H48.4247V8H47.1072V10ZM49.4247 9V1.72727H47.4247V9H49.4247ZM55.44 9.13849L55.442 8.13849H55.44V9.13849ZM52.6381 5.37074L51.6381 5.36924V5.37074H52.6381ZM53.9698 5.37074L52.9698 5.36869V5.36871L53.9698 5.37074ZM56.9137 5.37074H57.9137L57.9137 5.36869L56.9137 5.37074ZM55.438 10.1385C56.6108 10.1409 57.6176 9.66264 58.2999 8.74933C58.9541 7.87365 59.2418 6.69248 59.2418 5.37074H57.2418C57.2418 6.43536 57.0058 7.13984 56.6976 7.55234C56.4176 7.92721 56.0235 8.13967 55.442 8.1385L55.438 10.1385ZM59.2418 5.37074C59.2418 4.05352 58.9512 2.87835 58.2945 2.0076C57.6108 1.10099 56.6057 0.627841 55.44 0.627841V2.62784C56.0215 2.62784 56.4173 2.84006 56.6977 3.21186C57.0051 3.61952 57.2418 4.3158 57.2418 5.37074H59.2418ZM55.44 0.627841C54.2749 0.627841 53.2704 1.09968 52.5867 2.00636C51.9306 2.87663 51.6401 4.05153 51.6381 5.36924L53.6381 5.37223C53.6397 4.31423 53.8766 3.61769 54.1837 3.21044C54.4633 2.8396 54.8579 2.62784 55.44 2.62784V0.627841ZM51.6381 5.37074C51.6381 6.6911 51.9261 7.87121 52.5801 8.74667C53.2619 9.65936 54.2678 10.1385 55.44 10.1385V8.13849C54.8579 8.13849 54.4629 7.92516 54.1823 7.54967C53.874 7.13696 53.6381 6.43319 53.6381 5.37074H51.6381ZM55.44 7.02699C55.3934 7.02699 55.3337 7.03537 55.2321 6.85772C55.1001 6.62675 54.9682 6.16217 54.9698 5.37277L52.9698 5.36871C52.9679 6.32647 53.1183 7.19001 53.4959 7.85037C53.9039 8.56406 54.581 9.02699 55.44 9.02699V7.02699ZM54.9698 5.37279C54.9714 4.59024 55.1034 4.12648 55.2361 3.8945C55.339 3.71445 55.3985 3.72514 55.44 3.72514V1.72514C54.5795 1.72514 53.9056 2.19215 53.4999 2.90166C53.1239 3.55924 52.9718 4.41828 52.9698 5.36869L54.9698 5.37279ZM55.44 3.72514C55.4848 3.72514 55.5448 3.716 55.6474 3.89515C55.7801 4.12679 55.9121 4.59014 55.9137 5.37279L57.9137 5.36869C57.9118 4.41838 57.7597 3.55894 57.3828 2.90101C56.9758 2.19061 56.3007 1.72514 55.44 1.72514V3.72514ZM55.9137 5.37074C55.9137 6.16147 55.7818 6.62645 55.6496 6.85772C55.5485 7.03459 55.4892 7.02699 55.44 7.02699V9.02699C56.2999 9.02699 56.9774 8.56484 57.3859 7.85037C57.7633 7.19031 57.9137 6.32717 57.9137 5.37074H55.9137ZM62.3798 1.72727H63.3798V0.727273H62.3798V1.72727ZM61.1262 1.72727V0.727273H60.8327L60.5857 0.885933L61.1262 1.72727ZM59.3187 2.88849L58.7782 2.04715L58.3187 2.34235V2.88849H59.3187ZM59.3187 4.09588H58.3187V5.92135L59.8571 4.9386L59.3187 4.09588ZM61.0197 3.00923V2.00923H60.7276L60.4814 2.16651L61.0197 3.00923ZM61.0623 3.00923H62.0623V2.00923H61.0623V3.00923ZM61.0623 9H60.0623V10H61.0623V9ZM62.3798 9V10H63.3798V9H62.3798ZM62.3798 0.727273H61.1262V2.72727H62.3798V0.727273ZM60.5857 0.885933L58.7782 2.04715L59.8592 3.72983L61.6667 2.56861L60.5857 0.885933ZM58.3187 2.88849V4.09588H60.3187V2.88849H58.3187ZM59.8571 4.9386L61.5581 3.85195L60.4814 2.16651L58.7804 3.25316L59.8571 4.9386ZM61.0197 4.00923H61.0623V2.00923H61.0197V4.00923ZM60.0623 3.00923V9H62.0623V3.00923H60.0623ZM61.0623 10H62.3798V8H61.0623V10ZM63.3798 9V1.72727H61.3798V9H63.3798ZM67.1845 1.72727H68.1845V0.727273H67.1845V1.72727ZM65.9309 1.72727V0.727273H65.6374L65.3904 0.885933L65.9309 1.72727ZM64.1234 2.88849L63.5829 2.04715L63.1234 2.34235V2.88849H64.1234ZM64.1234 4.09588H63.1234V5.92135L64.6618 4.9386L64.1234 4.09588ZM65.8244 3.00923V2.00923H65.5322L65.286 2.16651L65.8244 3.00923ZM65.867 3.00923H66.867V2.00923H65.867V3.00923ZM65.867 9H64.867V10H65.867V9ZM67.1845 9V10H68.1845V9H67.1845ZM67.1845 0.727273H65.9309V2.72727H67.1845V0.727273ZM65.3904 0.885933L63.5829 2.04715L64.6639 3.72983L66.4714 2.56861L65.3904 0.885933ZM63.1234 2.88849V4.09588H65.1234V2.88849H63.1234ZM64.6618 4.9386L66.3628 3.85195L65.286 2.16651L63.585 3.25316L64.6618 4.9386ZM65.8244 4.00923H65.867V2.00923H65.8244V4.00923ZM64.867 3.00923V9H66.867V3.00923H64.867ZM65.867 10H67.1845V8H65.867V10ZM68.1845 9V1.72727H66.1845V9H68.1845ZM71.7193 9.13849L71.7213 8.13849H71.7193V9.13849ZM68.9174 5.37074L67.9174 5.36924V5.37074H68.9174ZM70.2491 5.37074L69.2491 5.36869V5.36871L70.2491 5.37074ZM73.193 5.37074H74.193L74.193 5.36869L73.193 5.37074ZM71.7173 10.1385C72.8901 10.1409 73.8969 9.66264 74.5792 8.74933C75.2334 7.87365 75.5211 6.69248 75.5211 5.37074H73.5211C73.5211 6.43536 73.2851 7.13984 72.9769 7.55234C72.6969 7.92721 72.3028 8.13967 71.7213 8.1385L71.7173 10.1385ZM75.5211 5.37074C75.5211 4.05352 75.2305 2.87835 74.5738 2.0076C73.8901 1.10099 72.885 0.627841 71.7193 0.627841V2.62784C72.3008 2.62784 72.6966 2.84006 72.977 3.21186C73.2844 3.61952 73.5211 4.3158 73.5211 5.37074H75.5211ZM71.7193 0.627841C70.5542 0.627841 69.5497 1.09968 68.866 2.00636C68.2099 2.87663 67.9194 4.05153 67.9174 5.36924L69.9174 5.37223C69.919 4.31423 70.1559 3.61769 70.463 3.21044C70.7426 2.8396 71.1372 2.62784 71.7193 2.62784V0.627841ZM67.9174 5.37074C67.9174 6.6911 68.2054 7.87121 68.8594 8.74667C69.5412 9.65936 70.5471 10.1385 71.7193 10.1385V8.13849C71.1372 8.13849 70.7421 7.92516 70.4616 7.54967C70.1533 7.13696 69.9174 6.43319 69.9174 5.37074H67.9174ZM71.7193 7.02699C71.6727 7.02699 71.613 7.03537 71.5114 6.85772C71.3794 6.62675 71.2475 6.16217 71.2491 5.37277L69.2491 5.36871C69.2472 6.32647 69.3976 7.19001 69.7752 7.85037C70.1832 8.56406 70.8603 9.02699 71.7193 9.02699V7.02699ZM71.2491 5.37279C71.2507 4.59024 71.3827 4.12648 71.5154 3.8945C71.6183 3.71445 71.6778 3.72514 71.7193 3.72514V1.72514C70.8588 1.72514 70.1849 2.19215 69.7792 2.90166C69.4032 3.55924 69.2511 4.41828 69.2491 5.36869L71.2491 5.37279ZM71.7193 3.72514C71.7641 3.72514 71.8241 3.716 71.9267 3.89515C72.0594 4.12679 72.1914 4.59014 72.193 5.37279L74.193 5.36869C74.1911 4.41838 74.039 3.55894 73.6621 2.90101C73.2551 2.19061 72.58 1.72514 71.7193 1.72514V3.72514ZM72.193 5.37074C72.193 6.16147 72.0611 6.62645 71.9289 6.85772C71.8278 7.03459 71.7685 7.02699 71.7193 7.02699V9.02699C72.5792 9.02699 73.2567 8.56484 73.6652 7.85037C74.0426 7.19031 74.193 6.32717 74.193 5.37074H72.193ZM78.6591 1.72727H79.6591V0.727273H78.6591V1.72727ZM77.4055 1.72727V0.727273H77.112L76.865 0.885933L77.4055 1.72727ZM75.598 2.88849L75.0575 2.04715L74.598 2.34235V2.88849H75.598ZM75.598 4.09588H74.598V5.92135L76.1364 4.9386L75.598 4.09588ZM77.299 3.00923V2.00923H77.0069L76.7607 2.16651L77.299 3.00923ZM77.3416 3.00923H78.3416V2.00923H77.3416V3.00923ZM77.3416 9H76.3416V10H77.3416V9ZM78.6591 9V10H79.6591V9H78.6591ZM78.6591 0.727273H77.4055V2.72727H78.6591V0.727273ZM76.865 0.885933L75.0575 2.04715L76.1385 3.72983L77.946 2.56861L76.865 0.885933ZM74.598 2.88849V4.09588H76.598V2.88849H74.598ZM76.1364 4.9386L77.8374 3.85195L76.7607 2.16651L75.0597 3.25316L76.1364 4.9386ZM77.299 4.00923H77.3416V2.00923H77.299V4.00923ZM76.3416 3.00923V9H78.3416V3.00923H76.3416ZM77.3416 10H78.6591V8H77.3416V10ZM79.6591 9V1.72727H77.6591V9H79.6591ZM83.4638 1.72727H84.4638V0.727273H83.4638V1.72727ZM82.2102 1.72727V0.727273H81.9167L81.6697 0.885933L82.2102 1.72727ZM80.4027 2.88849L79.8622 2.04715L79.4027 2.34235V2.88849H80.4027ZM80.4027 4.09588H79.4027V5.92135L80.9411 4.9386L80.4027 4.09588ZM82.1037 3.00923V2.00923H81.8115L81.5653 2.16651L82.1037 3.00923ZM82.1463 3.00923H83.1463V2.00923H82.1463V3.00923ZM82.1463 9H81.1463V10H82.1463V9ZM83.4638 9V10H84.4638V9H83.4638ZM83.4638 0.727273H82.2102V2.72727H83.4638V0.727273ZM81.6697 0.885933L79.8622 2.04715L80.9432 3.72983L82.7507 2.56861L81.6697 0.885933ZM79.4027 2.88849V4.09588H81.4027V2.88849H79.4027ZM80.9411 4.9386L82.6421 3.85195L81.5653 2.16651L79.8643 3.25316L80.9411 4.9386ZM82.1037 4.00923H82.1463V2.00923H82.1037V4.00923ZM81.1463 3.00923V9H83.1463V3.00923H81.1463ZM82.1463 10H83.4638V8H82.1463V10ZM84.4638 9V1.72727H82.4638V9H84.4638ZM88.2685 1.72727H89.2685V0.727273H88.2685V1.72727ZM87.0149 1.72727V0.727273H86.7214L86.4744 0.885933L87.0149 1.72727ZM85.2074 2.88849L84.6669 2.04715L84.2074 2.34235V2.88849H85.2074ZM85.2074 4.09588H84.2074V5.92135L85.7457 4.9386L85.2074 4.09588ZM86.9084 3.00923V2.00923H86.6162L86.37 2.16651L86.9084 3.00923ZM86.951 3.00923H87.951V2.00923H86.951V3.00923ZM86.951 9H85.951V10H86.951V9ZM88.2685 9V10H89.2685V9H88.2685ZM88.2685 0.727273H87.0149V2.72727H88.2685V0.727273ZM86.4744 0.885933L84.6669 2.04715L85.7479 3.72983L87.5554 2.56861L86.4744 0.885933ZM84.2074 2.88849V4.09588H86.2074V2.88849H84.2074ZM85.7457 4.9386L87.4467 3.85195L86.37 2.16651L84.669 3.25316L85.7457 4.9386ZM86.9084 4.00923H86.951V2.00923H86.9084V4.00923ZM85.951 3.00923V9H87.951V3.00923H85.951ZM86.951 10H88.2685V8H86.951V10ZM89.2685 9V1.72727H87.2685V9H89.2685ZM93.0732 1.72727H94.0732V0.727273H93.0732V1.72727ZM91.8196 1.72727V0.727273H91.5261L91.2791 0.885933L91.8196 1.72727ZM90.0121 2.88849L89.4716 2.04715L89.0121 2.34235V2.88849H90.0121ZM90.0121 4.09588H89.0121V5.92135L90.5504 4.9386L90.0121 4.09588ZM91.7131 3.00923V2.00923H91.4209L91.1747 2.16651L91.7131 3.00923ZM91.7557 3.00923H92.7557V2.00923H91.7557V3.00923ZM91.7557 9H90.7557V10H91.7557V9ZM93.0732 9V10H94.0732V9H93.0732ZM93.0732 0.727273H91.8196V2.72727H93.0732V0.727273ZM91.2791 0.885933L89.4716 2.04715L90.5526 3.72983L92.3601 2.56861L91.2791 0.885933ZM89.0121 2.88849V4.09588H91.0121V2.88849H89.0121ZM90.5504 4.9386L92.2514 3.85195L91.1747 2.16651L89.4737 3.25316L90.5504 4.9386ZM91.7131 4.00923H91.7557V2.00923H91.7131V4.00923ZM90.7557 3.00923V9H92.7557V3.00923H90.7557ZM91.7557 10H93.0732V8H91.7557V10ZM94.0732 9V1.72727H92.0732V9H94.0732ZM4.26323 100.138L4.26525 99.1385H4.26323V100.138ZM1.46138 96.3707L0.461381 96.3692V96.3707H1.46138ZM2.79306 96.3707L1.79306 96.3687V96.3687L2.79306 96.3707ZM5.73695 96.3707H6.73695L6.73695 96.3687L5.73695 96.3707ZM4.2612 101.138C5.434 101.141 6.44082 100.663 7.12313 99.7493C7.77732 98.8736 8.06507 97.6925 8.06507 96.3707H6.06507C6.06507 97.4354 5.82904 98.1398 5.52087 98.5523C5.24082 98.9272 4.84671 99.1397 4.26525 99.1385L4.2612 101.138ZM8.06507 96.3707C8.06507 95.0535 7.77443 93.8783 7.11774 93.0076C6.434 92.101 5.4289 91.6278 4.26323 91.6278V93.6278C4.84471 93.6278 5.24054 93.8401 5.52094 94.2119C5.82838 94.6195 6.06507 95.3158 6.06507 96.3707H8.06507ZM4.26323 91.6278C3.09812 91.6278 2.09362 92.0997 1.40999 93.0064C0.753803 93.8766 0.463352 95.0515 0.461383 96.3692L2.46138 96.3722C2.46296 95.3142 2.69985 94.6177 3.00692 94.2104C3.28653 93.8396 3.68117 93.6278 4.26323 93.6278V91.6278ZM0.461381 96.3707C0.461381 97.6911 0.749305 98.8712 1.40333 99.7467C2.08518 100.659 3.09108 101.138 4.26323 101.138V99.1385C3.68111 99.1385 3.2861 98.9252 3.00558 98.5497C2.69725 98.137 2.46138 97.4332 2.46138 96.3707H0.461381ZM4.26323 98.027C4.21663 98.027 4.15693 98.0354 4.05537 97.8577C3.92332 97.6268 3.79145 97.1622 3.79306 96.3728L1.79306 96.3687C1.79111 97.3265 1.94156 98.19 2.3191 98.8504C2.72712 99.5641 3.40429 100.027 4.26323 100.027V98.027ZM3.79306 96.3728C3.79466 95.5902 3.92665 95.1265 4.05931 94.8945C4.16227 94.7145 4.2217 94.7251 4.26323 94.7251V92.7251C3.40277 92.7251 2.72888 93.1922 2.32315 93.9017C1.9471 94.5592 1.79501 95.4183 1.79306 96.3687L3.79306 96.3728ZM4.26323 94.7251C4.30807 94.7251 4.368 94.716 4.47062 94.8952C4.60332 95.1268 4.73535 95.5901 4.73695 96.3728L6.73695 96.3687C6.735 95.4184 6.58294 94.5589 6.20604 93.901C5.79909 93.1906 5.12392 92.7251 4.26323 92.7251V94.7251ZM4.73695 96.3707C4.73695 97.1615 4.60508 97.6264 4.47286 97.8577C4.37174 98.0346 4.31241 98.027 4.26323 98.027V100.027C5.12314 100.027 5.80066 99.5648 6.20914 98.8504C6.5865 98.1903 6.73695 97.3272 6.73695 96.3707H4.73695ZM11.203 92.7273H12.203V91.7273H11.203V92.7273ZM9.94949 92.7273V91.7273H9.65594L9.40898 91.8859L9.94949 92.7273ZM8.14196 93.8885L7.60145 93.0472L7.14196 93.3423V93.8885H8.14196ZM8.14196 95.0959H7.14196V96.9213L8.68031 95.9386L8.14196 95.0959ZM9.84295 94.0092V93.0092H9.5508L9.3046 93.1665L9.84295 94.0092ZM9.88556 94.0092H10.8856V93.0092H9.88556V94.0092ZM9.88556 100H8.88556V101H9.88556V100ZM11.203 100V101H12.203V100H11.203ZM11.203 91.7273H9.94949V93.7273H11.203V91.7273ZM9.40898 91.8859L7.60145 93.0472L8.68246 94.7298L10.49 93.5686L9.40898 91.8859ZM7.14196 93.8885V95.0959H9.14196V93.8885H7.14196ZM8.68031 95.9386L10.3813 94.852L9.3046 93.1665L7.6036 94.2532L8.68031 95.9386ZM9.84295 95.0092H9.88556V93.0092H9.84295V95.0092ZM8.88556 94.0092V100H10.8856V94.0092H8.88556ZM9.88556 101H11.203V99H9.88556V101ZM12.203 100V92.7273H10.203V100H12.203ZM16.0077 92.7273H17.0077V91.7273H16.0077V92.7273ZM14.7542 92.7273V91.7273H14.4606L14.2137 91.8859L14.7542 92.7273ZM12.9466 93.8885L12.4061 93.0472L11.9466 93.3423V93.8885H12.9466ZM12.9466 95.0959H11.9466V96.9213L13.485 95.9386L12.9466 95.0959ZM14.6476 94.0092V93.0092H14.3555L14.1093 93.1665L14.6476 94.0092ZM14.6903 94.0092H15.6903V93.0092H14.6903V94.0092ZM14.6903 100H13.6903V101H14.6903V100ZM16.0077 100V101H17.0077V100H16.0077ZM16.0077 91.7273H14.7542V93.7273H16.0077V91.7273ZM14.2137 91.8859L12.4061 93.0472L13.4872 94.7298L15.2947 93.5686L14.2137 91.8859ZM11.9466 93.8885V95.0959H13.9466V93.8885H11.9466ZM13.485 95.9386L15.186 94.852L14.1093 93.1665L12.4083 94.2532L13.485 95.9386ZM14.6476 95.0092H14.6903V93.0092H14.6476V95.0092ZM13.6903 94.0092V100H15.6903V94.0092H13.6903ZM14.6903 101H16.0077V99H14.6903V101ZM17.0077 100V92.7273H15.0077V100H17.0077ZM20.5425 100.138L20.5445 99.1385H20.5425V100.138ZM17.7407 96.3707L16.7407 96.3692V96.3707H17.7407ZM19.0724 96.3707L18.0724 96.3687V96.3687L19.0724 96.3707ZM22.0162 96.3707H23.0162L23.0162 96.3687L22.0162 96.3707ZM20.5405 101.138C21.7133 101.141 22.7201 100.663 23.4024 99.7493C24.0566 98.8736 24.3444 97.6925 24.3444 96.3707H22.3444C22.3444 97.4354 22.1083 98.1398 21.8002 98.5523C21.5201 98.9272 21.126 99.1397 20.5445 99.1385L20.5405 101.138ZM24.3444 96.3707C24.3444 95.0535 24.0537 93.8783 23.397 93.0076C22.7133 92.101 21.7082 91.6278 20.5425 91.6278V93.6278C21.124 93.6278 21.5198 93.8401 21.8002 94.2119C22.1077 94.6195 22.3444 95.3158 22.3444 96.3707H24.3444ZM20.5425 91.6278C19.3774 91.6278 18.3729 92.0997 17.6893 93.0064C17.0331 93.8766 16.7426 95.0515 16.7407 96.3692L18.7407 96.3722C18.7423 95.3142 18.9792 94.6177 19.2862 94.2104C19.5658 93.8396 19.9605 93.6278 20.5425 93.6278V91.6278ZM16.7407 96.3707C16.7407 97.6911 17.0286 98.8712 17.6826 99.7467C18.3645 100.659 19.3704 101.138 20.5425 101.138V99.1385C19.9604 99.1385 19.5654 98.9252 19.2849 98.5497C18.9765 98.137 18.7407 97.4332 18.7407 96.3707H16.7407ZM20.5425 98.027C20.4959 98.027 20.4362 98.0354 20.3347 97.8577C20.2026 97.6268 20.0707 97.1622 20.0724 96.3728L18.0724 96.3687C18.0704 97.3265 18.2209 98.19 18.5984 98.8504C19.0064 99.5641 19.6836 100.027 20.5425 100.027V98.027ZM20.0724 96.3728C20.074 95.5902 20.2059 95.1265 20.3386 94.8945C20.4416 94.7145 20.501 94.7251 20.5425 94.7251V92.7251C19.6821 92.7251 19.0082 93.1922 18.6024 93.9017C18.2264 94.5592 18.0743 95.4183 18.0724 96.3687L20.0724 96.3728ZM20.5425 94.7251C20.5874 94.7251 20.6473 94.716 20.7499 94.8952C20.8826 95.1268 21.0146 95.5901 21.0162 96.3728L23.0162 96.3687C23.0143 95.4184 22.8622 94.5589 22.4853 93.901C22.0784 93.1906 21.4032 92.7251 20.5425 92.7251V94.7251ZM21.0162 96.3707C21.0162 97.1615 20.8844 97.6264 20.7522 97.8577C20.651 98.0346 20.5917 98.027 20.5425 98.027V100.027C21.4024 100.027 22.08 99.5648 22.4884 98.8504C22.8658 98.1903 23.0162 97.3272 23.0162 96.3707H21.0162ZM27.2124 100.138L27.2145 99.1385H27.2124V100.138ZM24.4106 96.3707L23.4106 96.3692V96.3707H24.4106ZM25.7423 96.3707L24.7423 96.3687V96.3687L25.7423 96.3707ZM28.6862 96.3707H29.6862L29.6862 96.3687L28.6862 96.3707ZM27.2104 101.138C28.3832 101.141 29.39 100.663 30.0723 99.7493C30.7265 98.8736 31.0143 97.6925 31.0143 96.3707H29.0143C29.0143 97.4354 28.7783 98.1398 28.4701 98.5523C28.19 98.9272 27.7959 99.1397 27.2145 99.1385L27.2104 101.138ZM31.0143 96.3707C31.0143 95.0535 30.7236 93.8783 30.067 93.0076C29.3832 92.101 28.3781 91.6278 27.2124 91.6278V93.6278C27.7939 93.6278 28.1898 93.8401 28.4702 94.2119C28.7776 94.6195 29.0143 95.3158 29.0143 96.3707H31.0143ZM27.2124 91.6278C26.0473 91.6278 25.0428 92.0997 24.3592 93.0064C23.703 93.8766 23.4126 95.0515 23.4106 96.3692L25.4106 96.3722C25.4122 95.3142 25.6491 94.6177 25.9561 94.2104C26.2358 93.8396 26.6304 93.6278 27.2124 93.6278V91.6278ZM23.4106 96.3707C23.4106 97.6911 23.6985 98.8712 24.3526 99.7467C25.0344 100.659 26.0403 101.138 27.2124 101.138V99.1385C26.6303 99.1385 26.2353 98.9252 25.9548 98.5497C25.6465 98.137 25.4106 97.4332 25.4106 96.3707H23.4106ZM27.2124 98.027C27.1658 98.027 27.1062 98.0354 27.0046 97.8577C26.8725 97.6268 26.7407 97.1622 26.7423 96.3728L24.7423 96.3687C24.7403 97.3265 24.8908 98.19 25.2683 98.8504C25.6763 99.5641 26.3535 100.027 27.2124 100.027V98.027ZM26.7423 96.3728C26.7439 95.5902 26.8759 95.1265 27.0085 94.8945C27.1115 94.7145 27.1709 94.7251 27.2124 94.7251V92.7251C26.352 92.7251 25.6781 93.1922 25.2724 93.9017C24.8963 94.5592 24.7442 95.4183 24.7423 96.3687L26.7423 96.3728ZM27.2124 94.7251C27.2573 94.7251 27.3172 94.716 27.4198 94.8952C27.5525 95.1268 27.6846 95.5901 27.6862 96.3728L29.6862 96.3687C29.6842 95.4184 29.5322 94.5589 29.1553 93.901C28.7483 93.1906 28.0731 92.7251 27.2124 92.7251V94.7251ZM27.6862 96.3707C27.6862 97.1615 27.5543 97.6264 27.4221 97.8577C27.321 98.0346 27.2616 98.027 27.2124 98.027V100.027C28.0724 100.027 28.7499 99.5648 29.1584 98.8504C29.5357 98.1903 29.6862 97.3272 29.6862 96.3707H27.6862ZM34.1523 92.7273H35.1523V91.7273H34.1523V92.7273ZM32.8987 92.7273V91.7273H32.6052L32.3582 91.8859L32.8987 92.7273ZM31.0912 93.8885L30.5507 93.0472L30.0912 93.3423V93.8885H31.0912ZM31.0912 95.0959H30.0912V96.9213L31.6295 95.9386L31.0912 95.0959ZM32.7922 94.0092V93.0092H32.5L32.2538 93.1665L32.7922 94.0092ZM32.8348 94.0092H33.8348V93.0092H32.8348V94.0092ZM32.8348 100H31.8348V101H32.8348V100ZM34.1523 100V101H35.1523V100H34.1523ZM34.1523 91.7273H32.8987V93.7273H34.1523V91.7273ZM32.3582 91.8859L30.5507 93.0472L31.6317 94.7298L33.4392 93.5686L32.3582 91.8859ZM30.0912 93.8885V95.0959H32.0912V93.8885H30.0912ZM31.6295 95.9386L33.3305 94.852L32.2538 93.1665L30.5528 94.2532L31.6295 95.9386ZM32.7922 95.0092H32.8348V93.0092H32.7922V95.0092ZM31.8348 94.0092V100H33.8348V94.0092H31.8348ZM32.8348 101H34.1523V99H32.8348V101ZM35.1523 100V92.7273H33.1523V100H35.1523ZM38.6871 100.138L38.6891 99.1385H38.6871V100.138ZM35.8852 96.3707L34.8852 96.3692V96.3707H35.8852ZM37.2169 96.3707L36.2169 96.3687V96.3687L37.2169 96.3707ZM40.1608 96.3707H41.1608L41.1608 96.3687L40.1608 96.3707ZM38.685 101.138C39.8578 101.141 40.8647 100.663 41.547 99.7493C42.2011 98.8736 42.4889 97.6925 42.4889 96.3707H40.4889C40.4889 97.4354 40.2529 98.1398 39.9447 98.5523C39.6646 98.9272 39.2705 99.1397 38.6891 99.1385L38.685 101.138ZM42.4889 96.3707C42.4889 95.0535 42.1983 93.8783 41.5416 93.0076C40.8578 92.101 39.8527 91.6278 38.6871 91.6278V93.6278C39.2685 93.6278 39.6644 93.8401 39.9448 94.2119C40.2522 94.6195 40.4889 95.3158 40.4889 96.3707H42.4889ZM38.6871 91.6278C37.5219 91.6278 36.5174 92.0997 35.8338 93.0064C35.1776 93.8766 34.8872 95.0515 34.8852 96.3692L36.8852 96.3722C36.8868 95.3142 37.1237 94.6177 37.4307 94.2104C37.7104 93.8396 38.105 93.6278 38.6871 93.6278V91.6278ZM34.8852 96.3707C34.8852 97.6911 35.1731 98.8712 35.8272 99.7467C36.509 100.659 37.5149 101.138 38.6871 101.138V99.1385C38.1049 99.1385 37.7099 98.9252 37.4294 98.5497C37.1211 98.137 36.8852 97.4332 36.8852 96.3707H34.8852ZM38.6871 98.027C38.6405 98.027 38.5808 98.0354 38.4792 97.8577C38.3471 97.6268 38.2153 97.1622 38.2169 96.3728L36.2169 96.3687C36.2149 97.3265 36.3654 98.19 36.7429 98.8504C37.151 99.5641 37.8281 100.027 38.6871 100.027V98.027ZM38.2169 96.3728C38.2185 95.5902 38.3505 95.1265 38.4831 94.8945C38.5861 94.7145 38.6455 94.7251 38.6871 94.7251V92.7251C37.8266 92.7251 37.1527 93.1922 36.747 93.9017C36.3709 94.5592 36.2188 95.4183 36.2169 96.3687L38.2169 96.3728ZM38.6871 94.7251C38.7319 94.7251 38.7918 94.716 38.8945 94.8952C39.0271 95.1268 39.1592 95.5901 39.1608 96.3728L41.1608 96.3687C41.1588 95.4184 41.0068 94.5589 40.6299 93.901C40.2229 93.1906 39.5477 92.7251 38.6871 92.7251V94.7251ZM39.1608 96.3707C39.1608 97.1615 39.0289 97.6264 38.8967 97.8577C38.7956 98.0346 38.7362 98.027 38.6871 98.027V100.027C39.547 100.027 40.2245 99.5648 40.633 98.8504C41.0103 98.1903 41.1608 97.3272 41.1608 96.3707H39.1608ZM45.357 100.138L45.359 99.1385H45.357V100.138ZM42.5551 96.3707L41.5551 96.3692V96.3707H42.5551ZM43.8868 96.3707L42.8868 96.3687V96.3687L43.8868 96.3707ZM46.8307 96.3707H47.8307L47.8307 96.3687L46.8307 96.3707ZM45.355 101.138C46.5278 101.141 47.5346 100.663 48.2169 99.7493C48.8711 98.8736 49.1588 97.6925 49.1588 96.3707H47.1588C47.1588 97.4354 46.9228 98.1398 46.6146 98.5523C46.3346 98.9272 45.9405 99.1397 45.359 99.1385L45.355 101.138ZM49.1588 96.3707C49.1588 95.0535 48.8682 93.8783 48.2115 93.0076C47.5277 92.101 46.5227 91.6278 45.357 91.6278V93.6278C45.9385 93.6278 46.3343 93.8401 46.6147 94.2119C46.9221 94.6195 47.1588 95.3158 47.1588 96.3707H49.1588ZM45.357 91.6278C44.1919 91.6278 43.1874 92.0997 42.5037 93.0064C41.8476 93.8766 41.5571 95.0515 41.5551 96.3692L43.5551 96.3722C43.5567 95.3142 43.7936 94.6177 44.1007 94.2104C44.3803 93.8396 44.7749 93.6278 45.357 93.6278V91.6278ZM41.5551 96.3707C41.5551 97.6911 41.8431 98.8712 42.4971 99.7467C43.1789 100.659 44.1848 101.138 45.357 101.138V99.1385C44.7749 99.1385 44.3798 98.9252 44.0993 98.5497C43.791 98.137 43.5551 97.4332 43.5551 96.3707H41.5551ZM45.357 98.027C45.3104 98.027 45.2507 98.0354 45.1491 97.8577C45.0171 97.6268 44.8852 97.1622 44.8868 96.3728L42.8868 96.3687C42.8849 97.3265 43.0353 98.19 43.4128 98.8504C43.8209 99.5641 44.498 100.027 45.357 100.027V98.027ZM44.8868 96.3728C44.8884 95.5902 45.0204 95.1265 45.1531 94.8945C45.256 94.7145 45.3155 94.7251 45.357 94.7251V92.7251C44.4965 92.7251 43.8226 93.1922 43.4169 93.9017C43.0409 94.5592 42.8888 95.4183 42.8868 96.3687L44.8868 96.3728ZM45.357 94.7251C45.4018 94.7251 45.4617 94.716 45.5644 94.8952C45.6971 95.1268 45.8291 95.5901 45.8307 96.3728L47.8307 96.3687C47.8288 95.4184 47.6767 94.5589 47.2998 93.901C46.8928 93.1906 46.2177 92.7251 45.357 92.7251V94.7251ZM45.8307 96.3707C45.8307 97.1615 45.6988 97.6264 45.5666 97.8577C45.4655 98.0346 45.4062 98.027 45.357 98.027V100.027C46.2169 100.027 46.8944 99.5648 47.3029 98.8504C47.6803 98.1903 47.8307 97.3272 47.8307 96.3707H45.8307ZM54.5074 100.138L54.5094 99.1385H54.5074V100.138ZM51.7055 96.3707L50.7055 96.3692V96.3707H51.7055ZM53.0372 96.3707L52.0372 96.3687V96.3687L53.0372 96.3707ZM55.9811 96.3707H56.9811L56.9811 96.3687L55.9811 96.3707ZM54.5053 101.138C55.6781 101.141 56.685 100.663 57.3673 99.7493C58.0215 98.8736 58.3092 97.6925 58.3092 96.3707H56.3092C56.3092 97.4354 56.0732 98.1398 55.765 98.5523C55.485 98.9272 55.0909 99.1397 54.5094 99.1385L54.5053 101.138ZM58.3092 96.3707C58.3092 95.0535 58.0186 93.8783 57.3619 93.0076C56.6781 92.101 55.673 91.6278 54.5074 91.6278V93.6278C55.0889 93.6278 55.4847 93.8401 55.7651 94.2119C56.0725 94.6195 56.3092 95.3158 56.3092 96.3707H58.3092ZM54.5074 91.6278C53.3423 91.6278 52.3378 92.0997 51.6541 93.0064C50.9979 93.8766 50.7075 95.0515 50.7055 96.3692L52.7055 96.3722C52.7071 95.3142 52.944 94.6177 53.2511 94.2104C53.5307 93.8396 53.9253 93.6278 54.5074 93.6278V91.6278ZM50.7055 96.3707C50.7055 97.6911 50.9934 98.8712 51.6475 99.7467C52.3293 100.659 53.3352 101.138 54.5074 101.138V99.1385C53.9253 99.1385 53.5302 98.9252 53.2497 98.5497C52.9414 98.137 52.7055 97.4332 52.7055 96.3707H50.7055ZM54.5074 98.027C54.4608 98.027 54.4011 98.0354 54.2995 97.8577C54.1675 97.6268 54.0356 97.1622 54.0372 96.3728L52.0372 96.3687C52.0353 97.3265 52.1857 98.19 52.5632 98.8504C52.9713 99.5641 53.6484 100.027 54.5074 100.027V98.027ZM54.0372 96.3728C54.0388 95.5902 54.1708 95.1265 54.3035 94.8945C54.4064 94.7145 54.4658 94.7251 54.5074 94.7251V92.7251C53.6469 92.7251 52.973 93.1922 52.5673 93.9017C52.1912 94.5592 52.0391 95.4183 52.0372 96.3687L54.0372 96.3728ZM54.5074 94.7251C54.5522 94.7251 54.6121 94.716 54.7148 94.8952C54.8475 95.1268 54.9795 95.5901 54.9811 96.3728L56.9811 96.3687C56.9791 95.4184 56.8271 94.5589 56.4502 93.901C56.0432 93.1906 55.3681 92.7251 54.5074 92.7251V94.7251ZM54.9811 96.3707C54.9811 97.1615 54.8492 97.6264 54.717 97.8577C54.6159 98.0346 54.5565 98.027 54.5074 98.027V100.027C55.3673 100.027 56.0448 99.5648 56.4533 98.8504C56.8306 98.1903 56.9811 97.3272 56.9811 96.3707H54.9811ZM61.4472 92.7273H62.4472V91.7273H61.4472V92.7273ZM60.1936 92.7273V91.7273H59.9001L59.6531 91.8859L60.1936 92.7273ZM58.3861 93.8885L57.8456 93.0472L57.3861 93.3423V93.8885H58.3861ZM58.3861 95.0959H57.3861V96.9213L58.9245 95.9386L58.3861 95.0959ZM60.0871 94.0092V93.0092H59.7949L59.5487 93.1665L60.0871 94.0092ZM60.1297 94.0092H61.1297V93.0092H60.1297V94.0092ZM60.1297 100H59.1297V101H60.1297V100ZM61.4472 100V101H62.4472V100H61.4472ZM61.4472 91.7273H60.1936V93.7273H61.4472V91.7273ZM59.6531 91.8859L57.8456 93.0472L58.9266 94.7298L60.7341 93.5686L59.6531 91.8859ZM57.3861 93.8885V95.0959H59.3861V93.8885H57.3861ZM58.9245 95.9386L60.6255 94.852L59.5487 93.1665L57.8477 94.2532L58.9245 95.9386ZM60.0871 95.0092H60.1297V93.0092H60.0871V95.0092ZM59.1297 94.0092V100H61.1297V94.0092H59.1297ZM60.1297 101H61.4472V99H60.1297V101ZM62.4472 100V92.7273H60.4472V100H62.4472ZM66.2519 92.7273H67.2519V91.7273H66.2519V92.7273ZM64.9983 92.7273V91.7273H64.7048L64.4578 91.8859L64.9983 92.7273ZM63.1908 93.8885L62.6503 93.0472L62.1908 93.3423V93.8885H63.1908ZM63.1908 95.0959H62.1908V96.9213L63.7291 95.9386L63.1908 95.0959ZM64.8918 94.0092V93.0092H64.5996L64.3534 93.1665L64.8918 94.0092ZM64.9344 94.0092H65.9344V93.0092H64.9344V94.0092ZM64.9344 100H63.9344V101H64.9344V100ZM66.2519 100V101H67.2519V100H66.2519ZM66.2519 91.7273H64.9983V93.7273H66.2519V91.7273ZM64.4578 91.8859L62.6503 93.0472L63.7313 94.7298L65.5388 93.5686L64.4578 91.8859ZM62.1908 93.8885V95.0959H64.1908V93.8885H62.1908ZM63.7291 95.9386L65.4301 94.852L64.3534 93.1665L62.6524 94.2532L63.7291 95.9386ZM64.8918 95.0092H64.9344V93.0092H64.8918V95.0092ZM63.9344 94.0092V100H65.9344V94.0092H63.9344ZM64.9344 101H66.2519V99H64.9344V101ZM67.2519 100V92.7273H65.2519V100H67.2519ZM70.7867 100.138L70.7887 99.1385H70.7867V100.138ZM67.9848 96.3707L66.9848 96.3692V96.3707H67.9848ZM69.3165 96.3707L68.3165 96.3687V96.3687L69.3165 96.3707ZM72.2604 96.3707H73.2604L73.2604 96.3687L72.2604 96.3707ZM70.7846 101.138C71.9574 101.141 72.9643 100.663 73.6466 99.7493C74.3008 98.8736 74.5885 97.6925 74.5885 96.3707H72.5885C72.5885 97.4354 72.3525 98.1398 72.0443 98.5523C71.7643 98.9272 71.3702 99.1397 70.7887 99.1385L70.7846 101.138ZM74.5885 96.3707C74.5885 95.0535 74.2979 93.8783 73.6412 93.0076C72.9574 92.101 71.9523 91.6278 70.7867 91.6278V93.6278C71.3681 93.6278 71.764 93.8401 72.0444 94.2119C72.3518 94.6195 72.5885 95.3158 72.5885 96.3707H74.5885ZM70.7867 91.6278C69.6216 91.6278 68.6171 92.0997 67.9334 93.0064C67.2772 93.8766 66.9868 95.0515 66.9848 96.3692L68.9848 96.3722C68.9864 95.3142 69.2233 94.6177 69.5304 94.2104C69.81 93.8396 70.2046 93.6278 70.7867 93.6278V91.6278ZM66.9848 96.3707C66.9848 97.6911 67.2727 98.8712 67.9268 99.7467C68.6086 100.659 69.6145 101.138 70.7867 101.138V99.1385C70.2045 99.1385 69.8095 98.9252 69.529 98.5497C69.2207 98.137 68.9848 97.4332 68.9848 96.3707H66.9848ZM70.7867 98.027C70.7401 98.027 70.6804 98.0354 70.5788 97.8577C70.4468 97.6268 70.3149 97.1622 70.3165 96.3728L68.3165 96.3687C68.3146 97.3265 68.465 98.19 68.8425 98.8504C69.2506 99.5641 69.9277 100.027 70.7867 100.027V98.027ZM70.3165 96.3728C70.3181 95.5902 70.4501 95.1265 70.5827 94.8945C70.6857 94.7145 70.7451 94.7251 70.7867 94.7251V92.7251C69.9262 92.7251 69.2523 93.1922 68.8466 93.9017C68.4705 94.5592 68.3184 95.4183 68.3165 96.3687L70.3165 96.3728ZM70.7867 94.7251C70.8315 94.7251 70.8914 94.716 70.9941 94.8952C71.1268 95.1268 71.2588 95.5901 71.2604 96.3728L73.2604 96.3687C73.2584 95.4184 73.1064 94.5589 72.7295 93.901C72.3225 93.1906 71.6474 92.7251 70.7867 92.7251V94.7251ZM71.2604 96.3707C71.2604 97.1615 71.1285 97.6264 70.9963 97.8577C70.8952 98.0346 70.8358 98.027 70.7867 98.027V100.027C71.6466 100.027 72.3241 99.5648 72.7326 98.8504C73.1099 98.1903 73.2604 97.3272 73.2604 96.3707H71.2604ZM77.4566 100.138L77.4586 99.1385H77.4566V100.138ZM74.6547 96.3707L73.6547 96.3692V96.3707H74.6547ZM75.9864 96.3707L74.9864 96.3687V96.3687L75.9864 96.3707ZM78.9303 96.3707H79.9303L79.9303 96.3687L78.9303 96.3707ZM77.4546 101.138C78.6274 101.141 79.6342 100.663 80.3165 99.7493C80.9707 98.8736 81.2584 97.6925 81.2584 96.3707H79.2584C79.2584 97.4354 79.0224 98.1398 78.7142 98.5523C78.4342 98.9272 78.0401 99.1397 77.4586 99.1385L77.4546 101.138ZM81.2584 96.3707C81.2584 95.0535 80.9678 93.8783 80.3111 93.0076C79.6274 92.101 78.6223 91.6278 77.4566 91.6278V93.6278C78.0381 93.6278 78.4339 93.8401 78.7143 94.2119C79.0217 94.6195 79.2584 95.3158 79.2584 96.3707H81.2584ZM77.4566 91.6278C76.2915 91.6278 75.287 92.0997 74.6033 93.0064C73.9472 93.8766 73.6567 95.0515 73.6547 96.3692L75.6547 96.3722C75.6563 95.3142 75.8932 94.6177 76.2003 94.2104C76.4799 93.8396 76.8745 93.6278 77.4566 93.6278V91.6278ZM73.6547 96.3707C73.6547 97.6911 73.9427 98.8712 74.5967 99.7467C75.2785 100.659 76.2844 101.138 77.4566 101.138V99.1385C76.8745 99.1385 76.4795 98.9252 76.1989 98.5497C75.8906 98.137 75.6547 97.4332 75.6547 96.3707H73.6547ZM77.4566 98.027C77.41 98.027 77.3503 98.0354 77.2487 97.8577C77.1167 97.6268 76.9848 97.1622 76.9864 96.3728L74.9864 96.3687C74.9845 97.3265 75.1349 98.19 75.5125 98.8504C75.9205 99.5641 76.5976 100.027 77.4566 100.027V98.027ZM76.9864 96.3728C76.988 95.5902 77.12 95.1265 77.2527 94.8945C77.3556 94.7145 77.4151 94.7251 77.4566 94.7251V92.7251C76.5961 92.7251 75.9222 93.1922 75.5165 93.9017C75.1405 94.5592 74.9884 95.4183 74.9864 96.3687L76.9864 96.3728ZM77.4566 94.7251C77.5014 94.7251 77.5614 94.716 77.664 94.8952C77.7967 95.1268 77.9287 95.5901 77.9303 96.3728L79.9303 96.3687C79.9284 95.4184 79.7763 94.5589 79.3994 93.901C78.9924 93.1906 78.3173 92.7251 77.4566 92.7251V94.7251ZM77.9303 96.3707C77.9303 97.1615 77.7984 97.6264 77.6662 97.8577C77.5651 98.0346 77.5058 98.027 77.4566 98.027V100.027C78.3165 100.027 78.994 99.5648 79.4025 98.8504C79.7799 98.1903 79.9303 97.3272 79.9303 96.3707H77.9303ZM84.3964 92.7273H85.3964V91.7273H84.3964V92.7273ZM83.1428 92.7273V91.7273H82.8493L82.6023 91.8859L83.1428 92.7273ZM81.3353 93.8885L80.7948 93.0472L80.3353 93.3423V93.8885H81.3353ZM81.3353 95.0959H80.3353V96.9213L81.8737 95.9386L81.3353 95.0959ZM83.0363 94.0092V93.0092H82.7442L82.498 93.1665L83.0363 94.0092ZM83.0789 94.0092H84.0789V93.0092H83.0789V94.0092ZM83.0789 100H82.0789V101H83.0789V100ZM84.3964 100V101H85.3964V100H84.3964ZM84.3964 91.7273H83.1428V93.7273H84.3964V91.7273ZM82.6023 91.8859L80.7948 93.0472L81.8758 94.7298L83.6833 93.5686L82.6023 91.8859ZM80.3353 93.8885V95.0959H82.3353V93.8885H80.3353ZM81.8737 95.9386L83.5747 94.852L82.498 93.1665L80.797 94.2532L81.8737 95.9386ZM83.0363 95.0092H83.0789V93.0092H83.0363V95.0092ZM82.0789 94.0092V100H84.0789V94.0092H82.0789ZM83.0789 101H84.3964V99H83.0789V101ZM85.3964 100V92.7273H83.3964V100H85.3964ZM88.9312 100.138L88.9332 99.1385H88.9312V100.138ZM86.1293 96.3707L85.1293 96.3692V96.3707H86.1293ZM87.461 96.3707L86.461 96.3687V96.3687L87.461 96.3707ZM90.4049 96.3707H91.4049L91.4049 96.3687L90.4049 96.3707ZM88.9292 101.138C90.102 101.141 91.1088 100.663 91.7911 99.7493C92.4453 98.8736 92.733 97.6925 92.733 96.3707H90.733C90.733 97.4354 90.497 98.1398 90.1888 98.5523C89.9088 98.9272 89.5147 99.1397 88.9332 99.1385L88.9292 101.138ZM92.733 96.3707C92.733 95.0535 92.4424 93.8783 91.7857 93.0076C91.102 92.101 90.0969 91.6278 88.9312 91.6278V93.6278C89.5127 93.6278 89.9085 93.8401 90.1889 94.2119C90.4963 94.6195 90.733 95.3158 90.733 96.3707H92.733ZM88.9312 91.6278C87.7661 91.6278 86.7616 92.0997 86.078 93.0064C85.4218 93.8766 85.1313 95.0515 85.1293 96.3692L87.1293 96.3722C87.1309 95.3142 87.3678 94.6177 87.6749 94.2104C87.9545 93.8396 88.3491 93.6278 88.9312 93.6278V91.6278ZM85.1293 96.3707C85.1293 97.6911 85.4173 98.8712 86.0713 99.7467C86.7531 100.659 87.7591 101.138 88.9312 101.138V99.1385C88.3491 99.1385 87.9541 98.9252 87.6736 98.5497C87.3652 98.137 87.1293 97.4332 87.1293 96.3707H85.1293ZM88.9312 98.027C88.8846 98.027 88.8249 98.0354 88.7233 97.8577C88.5913 97.6268 88.4594 97.1622 88.461 96.3728L86.461 96.3687C86.4591 97.3265 86.6095 98.19 86.9871 98.8504C87.3951 99.5641 88.0723 100.027 88.9312 100.027V98.027ZM88.461 96.3728C88.4626 95.5902 88.5946 95.1265 88.7273 94.8945C88.8302 94.7145 88.8897 94.7251 88.9312 94.7251V92.7251C88.0707 92.7251 87.3969 93.1922 86.9911 93.9017C86.6151 94.5592 86.463 95.4183 86.461 96.3687L88.461 96.3728ZM88.9312 94.7251C88.976 94.7251 89.036 94.716 89.1386 94.8952C89.2713 95.1268 89.4033 95.5901 89.4049 96.3728L91.4049 96.3687C91.403 95.4184 91.2509 94.5589 90.874 93.901C90.4671 93.1906 89.7919 92.7251 88.9312 92.7251V94.7251ZM89.4049 96.3707C89.4049 97.1615 89.273 97.6264 89.1408 97.8577C89.0397 98.0346 88.9804 98.027 88.9312 98.027V100.027C89.7911 100.027 90.4686 99.5648 90.8771 98.8504C91.2545 98.1903 91.4049 97.3272 91.4049 96.3707H89.4049ZM95.871 92.7273H96.871V91.7273H95.871V92.7273ZM94.6175 92.7273V91.7273H94.3239L94.077 91.8859L94.6175 92.7273ZM92.8099 93.8885L92.2694 93.0472L91.8099 93.3423V93.8885H92.8099ZM92.8099 95.0959H91.8099V96.9213L93.3483 95.9386L92.8099 95.0959ZM94.5109 94.0092V93.0092H94.2188L93.9726 93.1665L94.5109 94.0092ZM94.5535 94.0092H95.5535V93.0092H94.5535V94.0092ZM94.5535 100H93.5535V101H94.5535V100ZM95.871 100V101H96.871V100H95.871ZM95.871 91.7273H94.6175V93.7273H95.871V91.7273ZM94.077 91.8859L92.2694 93.0472L93.3504 94.7298L95.158 93.5686L94.077 91.8859ZM91.8099 93.8885V95.0959H93.8099V93.8885H91.8099ZM93.3483 95.9386L95.0493 94.852L93.9726 93.1665L92.2716 94.2532L93.3483 95.9386ZM94.5109 95.0092H94.5535V93.0092H94.5109V95.0092ZM93.5535 94.0092V100H95.5535V94.0092H93.5535ZM94.5535 101H95.871V99H94.5535V101ZM96.871 100V92.7273H94.871V100H96.871Z" fill="#E4E7EB"/>
</svg>
