<svg width="97" height="47" viewBox="0 0 97 47" fill="none" xmlns="http://www.w3.org/2000/svg">
<path d="M17.608 45.1932V40.4716C13.6023 40.4716 12.6477 38.8352 12.6477 35.2898V29.6989C12.6477 27.0398 11.5909 24.7898 6.98864 23.8693V23.2216C11.5909 22.3011 12.6477 20.0341 12.6477 17.375V11.7841C12.6477 8.25568 13.6023 6.61932 17.608 6.61932V1.88068C10.7898 1.88068 6.78409 3.60227 6.78409 11.2898V15.6364C6.78409 19.2159 5.45455 20.6818 1.58523 20.6818V26.4091C5.45455 26.4091 6.78409 27.875 6.78409 31.4545V35.7841C6.78409 43.4716 10.7898 45.1932 17.608 45.1932ZM64.1207 17.8693C63.0469 10.1136 57.081 5.61364 49.3423 5.61364C40.223 5.61364 33.3537 12.2614 33.3537 23.5455C33.3537 34.8125 40.1378 41.4773 49.3423 41.4773C57.6435 41.4773 63.1491 36.108 64.1207 29.4432L57.7457 29.4091C56.9446 33.5 53.6037 35.8011 49.4276 35.8011C43.7685 35.8011 39.7116 31.5568 39.7116 23.5455C39.7116 15.6705 43.7344 11.2898 49.4446 11.2898C53.6889 11.2898 57.0128 13.6932 57.7457 17.8693H64.1207ZM79.6534 1.89773V6.61932C83.6591 6.61932 84.6136 8.25568 84.6136 11.8011V17.392C84.6136 20.0511 85.6705 22.3011 90.2727 23.2216V23.8693C85.6705 24.7898 84.6136 27.0568 84.6136 29.7159V35.3068C84.6136 38.8352 83.6591 40.4716 79.6534 40.4716V45.2102C86.4716 45.2102 90.4773 43.4886 90.4773 35.8011V31.4545C90.4773 27.875 91.8068 26.4091 95.6761 26.4091V20.6818C91.8068 20.6818 90.4773 19.2159 90.4773 15.6364V11.3068C90.4773 3.61932 86.4716 1.89773 79.6534 1.89773Z" fill="#1F2933"/>
<path d="M17.608 45.1932V46.1932H18.608V45.1932H17.608ZM17.608 40.4716H18.608V39.4716H17.608V40.4716ZM6.98864 23.8693H5.98864V24.6891L6.79252 24.8499L6.98864 23.8693ZM6.98864 23.2216L6.79252 22.241L5.98864 22.4018V23.2216H6.98864ZM17.608 6.61932V7.61932H18.608V6.61932H17.608ZM17.608 1.88068H18.608V0.880681H17.608V1.88068ZM1.58523 20.6818V19.6818H0.585227V20.6818H1.58523ZM1.58523 26.4091H0.585227V27.4091H1.58523V26.4091ZM18.608 45.1932V40.4716H16.608V45.1932H18.608ZM17.608 39.4716C15.6991 39.4716 14.8317 39.0744 14.3811 38.5549C13.8982 37.9983 13.6477 37.0349 13.6477 35.2898H11.6477C11.6477 37.0901 11.8745 38.7176 12.8703 39.8655C13.8984 41.0506 15.5111 41.4716 17.608 41.4716V39.4716ZM13.6477 35.2898V29.6989H11.6477V35.2898H13.6477ZM13.6477 29.6989C13.6477 28.2425 13.3582 26.7502 12.3131 25.4929C11.2745 24.2434 9.61304 23.3744 7.18475 22.8887L6.79252 24.8499C8.96651 25.2847 10.1346 26.0009 10.775 26.7713C11.4089 27.5339 11.6477 28.4961 11.6477 29.6989H13.6477ZM7.98864 23.8693V23.2216H5.98864V23.8693H7.98864ZM7.18475 24.2022C9.6148 23.7162 11.2763 22.8421 12.3144 21.5879C13.3582 20.3268 13.6477 18.8312 13.6477 17.375H11.6477C11.6477 18.5779 11.4088 19.5454 10.7737 20.3127C10.1328 21.0869 8.96474 21.8066 6.79252 22.241L7.18475 24.2022ZM13.6477 17.375V11.7841H11.6477V17.375H13.6477ZM13.6477 11.7841C13.6477 10.0483 13.898 9.08936 14.3803 8.53477C14.831 8.01653 15.6992 7.61932 17.608 7.61932V5.61932C15.5111 5.61932 13.8991 6.04029 12.8711 7.22232C11.8748 8.36803 11.6477 9.99143 11.6477 11.7841H13.6477ZM18.608 6.61932V1.88068H16.608V6.61932H18.608ZM17.608 0.880681C14.1696 0.880681 11.1718 1.30178 9.03891 2.90264C6.83285 4.55845 5.78409 7.28332 5.78409 11.2898H7.78409C7.78409 7.60872 8.73818 5.62905 10.2395 4.50219C11.814 3.32038 14.2281 2.88068 17.608 2.88068V0.880681ZM5.78409 11.2898V15.6364H7.78409V11.2898H5.78409ZM5.78409 15.6364C5.78409 17.3439 5.45851 18.2657 4.92947 18.7934C4.39853 19.3229 3.43568 19.6818 1.58523 19.6818V21.6818C3.60409 21.6818 5.24067 21.3077 6.34184 20.2094C7.4449 19.1093 7.78409 17.5084 7.78409 15.6364H5.78409ZM0.585227 20.6818V26.4091H2.58523V20.6818H0.585227ZM1.58523 27.4091C3.43568 27.4091 4.39853 27.768 4.92947 28.2975C5.45851 28.8252 5.78409 29.747 5.78409 31.4545H7.78409C7.78409 29.5825 7.4449 27.9816 6.34184 26.8815C5.24067 25.7832 3.60409 25.4091 1.58523 25.4091V27.4091ZM5.78409 31.4545V35.7841H7.78409V31.4545H5.78409ZM5.78409 35.7841C5.78409 39.7905 6.83285 42.5154 9.03891 44.1712C11.1718 45.7721 14.1696 46.1932 17.608 46.1932V44.1932C14.2281 44.1932 11.814 43.7535 10.2395 42.5717C8.73818 41.4448 7.78409 39.4651 7.78409 35.7841H5.78409ZM64.1207 17.8693V18.8693H65.2687L65.1113 17.7322L64.1207 17.8693ZM64.1207 29.4432L65.1103 29.5874L65.2762 28.4493L64.1261 28.4432L64.1207 29.4432ZM57.7457 29.4091L57.7511 28.4091L56.9234 28.4047L56.7644 29.2169L57.7457 29.4091ZM57.7457 17.8693L56.7608 18.0422L56.906 18.8693H57.7457V17.8693ZM65.1113 17.7322C64.5419 13.6197 62.6632 10.32 59.8592 8.05517C57.0624 5.79615 53.4048 4.61364 49.3423 4.61364V6.61364C53.0185 6.61364 56.2132 7.68112 58.6025 9.61102C60.9846 11.5351 62.6257 14.3633 63.1302 18.0065L65.1113 17.7322ZM49.3423 4.61364C44.5307 4.61364 40.2593 6.37294 37.196 9.66701C34.1361 12.9573 32.3537 17.6995 32.3537 23.5455H34.3537C34.3537 18.1073 36.0059 13.8836 38.6606 11.029C41.3117 8.17819 45.0346 6.61364 49.3423 6.61364V4.61364ZM32.3537 23.5455C32.3537 29.3799 34.113 34.1222 37.1625 37.4159C40.2164 40.7144 44.4892 42.4773 49.3423 42.4773V40.4773C44.9909 40.4773 41.2694 38.9078 38.6301 36.0571C35.9864 33.2017 34.3537 28.9781 34.3537 23.5455H32.3537ZM49.3423 42.4773C58.1331 42.4773 64.0661 36.7504 65.1103 29.5874L63.1312 29.2989C62.2322 35.4655 57.1538 40.4773 49.3423 40.4773V42.4773ZM64.1261 28.4432L57.7511 28.4091L57.7404 30.4091L64.1154 30.4432L64.1261 28.4432ZM56.7644 29.2169C56.0706 32.7596 53.2108 34.8011 49.4276 34.8011V36.8011C53.9966 36.8011 57.8186 34.2404 58.7271 29.6013L56.7644 29.2169ZM49.4276 34.8011C46.8657 34.8011 44.729 33.8504 43.2151 32.0367C41.6855 30.2042 40.7116 27.3918 40.7116 23.5455H38.7116C38.7116 27.7104 39.7662 31.0259 41.6797 33.3184C43.609 35.6297 46.3303 36.8011 49.4276 36.8011V34.8011ZM40.7116 23.5455C40.7116 19.769 41.6762 16.9536 43.2075 15.1017C44.7229 13.2689 46.8648 12.2898 49.4446 12.2898V10.2898C46.3141 10.2898 43.5896 11.501 41.6661 13.8273C39.7585 16.1344 38.7116 19.4469 38.7116 23.5455H40.7116ZM49.4446 12.2898C53.2758 12.2898 56.1237 14.4123 56.7608 18.0422L58.7307 17.6964C57.9019 12.974 54.1021 10.2898 49.4446 10.2898V12.2898ZM57.7457 18.8693H64.1207V16.8693H57.7457V18.8693ZM79.6534 1.89773V0.897727H78.6534V1.89773H79.6534ZM79.6534 6.61932H78.6534V7.61932H79.6534V6.61932ZM90.2727 23.2216H91.2727V22.4018L90.4688 22.241L90.2727 23.2216ZM90.2727 23.8693L90.4688 24.8499L91.2727 24.6891V23.8693H90.2727ZM79.6534 40.4716V39.4716H78.6534V40.4716H79.6534ZM79.6534 45.2102H78.6534V46.2102H79.6534V45.2102ZM95.6761 26.4091V27.4091H96.6761V26.4091H95.6761ZM95.6761 20.6818H96.6761V19.6818H95.6761V20.6818ZM78.6534 1.89773V6.61932H80.6534V1.89773H78.6534ZM79.6534 7.61932C81.5622 7.61932 82.4297 8.01654 82.8803 8.53597C83.3632 9.09262 83.6136 10.0561 83.6136 11.8011H85.6136C85.6136 10.0008 85.3868 8.37329 84.391 7.22539C83.3629 6.04028 81.7503 5.61932 79.6534 5.61932V7.61932ZM83.6136 11.8011V17.392H85.6136V11.8011H83.6136ZM83.6136 17.392C83.6136 18.8484 83.9032 20.3407 84.9483 21.598C85.9869 22.8475 87.6483 23.7165 90.0766 24.2022L90.4688 22.241C88.2949 21.8062 87.1267 21.09 86.4864 20.3196C85.8525 19.557 85.6136 18.5948 85.6136 17.392H83.6136ZM89.2727 23.2216V23.8693H91.2727V23.2216H89.2727ZM90.0766 22.8887C87.6466 23.3747 85.9851 24.2488 84.947 25.503C83.9031 26.7641 83.6136 28.2597 83.6136 29.7159H85.6136C85.6136 28.513 85.8526 27.5455 86.4877 26.7783C87.1285 26.004 88.2966 25.2843 90.4688 24.8499L90.0766 22.8887ZM83.6136 29.7159V35.3068H85.6136V29.7159H83.6136ZM83.6136 35.3068C83.6136 37.0426 83.3634 38.0016 82.8811 38.5561C82.4304 39.0744 81.5622 39.4716 79.6534 39.4716V41.4716C81.7503 41.4716 83.3622 41.0506 84.3902 39.8686C85.3866 38.7229 85.6136 37.0995 85.6136 35.3068H83.6136ZM78.6534 40.4716V45.2102H80.6534V40.4716H78.6534ZM79.6534 46.2102C83.0917 46.2102 86.0896 45.7891 88.2225 44.1883C90.4285 42.5325 91.4773 39.8076 91.4773 35.8011H89.4773C89.4773 39.4822 88.5232 41.4619 87.0219 42.5887C85.4473 43.7705 83.0333 44.2102 79.6534 44.2102V46.2102ZM91.4773 35.8011V31.4545H89.4773V35.8011H91.4773ZM91.4773 31.4545C91.4773 29.747 91.8029 28.8252 92.3319 28.2975C92.8628 27.768 93.8257 27.4091 95.6761 27.4091V25.4091C93.6573 25.4091 92.0207 25.7832 90.9195 26.8815C89.8165 27.9816 89.4773 29.5825 89.4773 31.4545H91.4773ZM96.6761 26.4091V20.6818H94.6761V26.4091H96.6761ZM95.6761 19.6818C93.8257 19.6818 92.8628 19.3229 92.3319 18.7934C91.8029 18.2657 91.4773 17.3439 91.4773 15.6364H89.4773C89.4773 17.5084 89.8165 19.1093 90.9195 20.2094C92.0207 21.3077 93.6573 21.6818 95.6761 21.6818V19.6818ZM91.4773 15.6364V11.3068H89.4773V15.6364H91.4773ZM91.4773 11.3068C91.4773 7.30036 90.4285 4.57549 88.2225 2.91968C86.0896 1.31882 83.0917 0.897727 79.6534 0.897727V2.89773C83.0333 2.89773 85.4473 3.33743 87.0219 4.51924C88.5232 5.64609 89.4773 7.62577 89.4773 11.3068H91.4773Z" fill="#F5F7FA"/>
</svg>
