<svg width="59" height="51" viewBox="0 0 59 51" fill="none" xmlns="http://www.w3.org/2000/svg">
<path d="M8.44156 4.56845C8.57198 3.75105 8.48223 2.91655 8.18561 2.14969C9.36123 1.48862 10.6212 0.961926 11.9475 0.595941C12.2833 1.33882 12.8091 1.98346 13.4754 2.46261C14.2692 3.03344 15.2223 3.34054 16.2 3.34054C17.1777 3.34054 18.1308 3.03344 18.9246 2.46261C19.5909 1.98346 20.1167 1.33882 20.4525 0.595945C21.7833 0.963196 23.0456 1.49208 24.2121 2.15549C23.9173 2.92076 23.8284 3.75311 23.9584 4.56845C24.1134 5.53985 24.5714 6.43744 25.267 7.13301C25.9626 7.82859 26.8601 8.28657 27.8315 8.44156C28.647 8.57166 29.4794 8.48268 30.2447 8.18779C30.909 9.35387 31.4379 10.6068 31.8049 11.9471C31.0617 12.2829 30.4167 12.8089 29.9374 13.4754C29.3666 14.2692 29.0595 15.2223 29.0595 16.2C29.0595 17.1777 29.3666 18.1308 29.9374 18.9246C30.4165 19.5909 31.0612 20.1167 31.8041 20.4525C31.4368 21.7833 30.9079 23.0456 30.2445 24.2121C29.4792 23.9173 28.6469 23.8284 27.8315 23.9584C26.8601 24.1134 25.9626 24.5714 25.267 25.267C24.5714 25.9626 24.1134 26.8601 23.9584 27.8315C23.8283 28.647 23.9173 29.4794 24.2122 30.2447C23.0461 30.909 21.7932 31.4379 20.4529 31.8049C20.1171 31.0617 19.5911 30.4167 18.9246 29.9374C18.1308 29.3666 17.1777 29.0595 16.2 29.0595C15.2223 29.0595 14.2692 29.3666 13.4754 29.9374C12.8091 30.4165 12.2833 31.0612 11.9475 31.8041C10.6167 31.4368 9.3544 30.9079 8.18785 30.2445C8.48269 29.4792 8.57165 28.6469 8.44156 27.8315C8.28657 26.8601 7.82859 25.9626 7.13301 25.267C6.43744 24.5714 5.53985 24.1134 4.56845 23.9584C3.7526 23.8283 2.91973 23.9174 2.15406 24.2127C1.47696 23.0307 0.952928 21.7673 0.594587 20.4531C1.33803 20.1173 1.98317 19.5913 2.46261 18.9246C3.03344 18.1308 3.34054 17.1777 3.34054 16.2C3.34054 15.2223 3.03344 14.2692 2.46261 13.4754C1.98346 12.8091 1.33882 12.2833 0.595946 11.9475C0.963196 10.6167 1.49208 9.3544 2.15549 8.18785C2.92076 8.48269 3.75311 8.57165 4.56845 8.44156C5.53985 8.28657 6.43744 7.82859 7.13301 7.13301C7.82859 6.43744 8.28657 5.53985 8.44156 4.56845ZM16.2 23.3667C18.1007 23.3667 19.9236 22.6116 21.2676 21.2676C22.6116 19.9236 23.3667 18.1007 23.3667 16.2C23.3667 14.2993 22.6116 12.4764 21.2676 11.1324C19.9236 9.78839 18.1007 9.03333 16.2 9.03333C14.2993 9.03333 12.4764 9.78839 11.1324 11.1324C9.78839 12.4764 9.03333 14.2993 9.03333 16.2C9.03333 18.1007 9.78839 19.9236 11.1324 21.2676C12.4764 22.6116 14.2993 23.3667 16.2 23.3667Z" fill="#1F2933" stroke="#F5F7FA"/>
<path d="M19.0332 16.2C19.0332 17.7648 17.7647 19.0334 16.1999 19.0334C14.6351 19.0334 13.3666 17.7648 13.3666 16.2C13.3666 14.6352 14.6351 13.3667 16.1999 13.3667C17.7647 13.3667 19.0332 14.6352 19.0332 16.2Z" fill="#1F2933" stroke="#F5F7FA"/>
<path d="M34.6415 22.7684C34.7719 21.951 34.6822 21.1165 34.3856 20.3496C35.5612 19.6886 36.8211 19.1619 38.1475 18.7959C38.4833 19.5388 39.0091 20.1834 39.6754 20.6626C40.4692 21.2334 41.4222 21.5405 42.4 21.5405C43.3777 21.5405 44.3307 21.2334 45.1245 20.6626C45.7908 20.1834 46.3166 19.5388 46.6524 18.7959C47.9833 19.1631 49.2455 19.692 50.4121 20.3554C50.1173 21.1207 50.0283 21.9531 50.1584 22.7684C50.3134 23.7398 50.7714 24.6374 51.4669 25.333C52.1625 26.0285 53.0601 26.4865 54.0315 26.6415C54.8469 26.7716 55.6793 26.6826 56.4446 26.3877C57.109 27.5538 57.6379 28.8068 58.0049 30.1471C57.2616 30.4828 56.6167 31.0088 56.1373 31.6754C55.5665 32.4692 55.2594 33.4222 55.2594 34.4C55.2594 35.3777 55.5665 36.3307 56.1373 37.1245C56.6165 37.7908 57.2611 38.3166 58.004 38.6524C57.6368 39.9833 57.1079 41.2455 56.4445 42.4121C55.6792 42.1173 54.8468 42.0283 54.0315 42.1584C53.0601 42.3134 52.1625 42.7714 51.4669 43.4669C50.7714 44.1625 50.3134 45.0601 50.1584 46.0315C50.0283 46.8469 50.1173 47.6793 50.4122 48.4446C49.2461 49.109 47.9931 49.6379 46.6528 50.0049C46.3171 49.2616 45.7911 48.6167 45.1245 48.1373C44.3307 47.5665 43.3777 47.2594 42.4 47.2594C41.4222 47.2594 40.4692 47.5665 39.6754 48.1373C39.0091 48.6165 38.4833 49.2611 38.1475 50.004C36.8166 49.6368 35.5544 49.1079 34.3878 48.4445C34.6826 47.6792 34.7716 46.8468 34.6415 46.0315C34.4865 45.0601 34.0285 44.1625 33.333 43.4669C32.6374 42.7714 31.7398 42.3134 30.7684 42.1584C29.9526 42.0282 29.1197 42.1174 28.354 42.4126C27.6769 41.2306 27.1529 39.9673 26.7945 38.653C27.538 38.3173 28.1831 37.7912 28.6626 37.1245C29.2334 36.3307 29.5405 35.3777 29.5405 34.4C29.5405 33.4222 29.2334 32.4692 28.6626 31.6754C28.1834 31.0091 27.5388 30.4833 26.7959 30.1475C27.1631 28.8166 27.692 27.5544 28.3554 26.3878C29.1207 26.6826 29.9531 26.7716 30.7684 26.6415C31.7398 26.4865 32.6374 26.0285 33.333 25.333C34.0285 24.6374 34.4865 23.7398 34.6415 22.7684ZM42.4 41.5666C44.3007 41.5666 46.1235 40.8116 47.4676 39.4676C48.8116 38.1235 49.5666 36.3007 49.5666 34.4C49.5666 32.4992 48.8116 30.6764 47.4676 29.3324C46.1235 27.9883 44.3007 27.2333 42.4 27.2333C40.4992 27.2333 38.6764 27.9883 37.3324 29.3324C35.9883 30.6764 35.2333 32.4992 35.2333 34.4C35.2333 36.3007 35.9883 38.1235 37.3324 39.4676C38.6764 40.8116 40.4992 41.5666 42.4 41.5666Z" fill="#1F2933" stroke="#F5F7FA"/>
</svg>
