<svg width="80" height="83" viewBox="0 0 80 83" fill="none" xmlns="http://www.w3.org/2000/svg">
<rect y="83" width="83" height="80" rx="2" transform="rotate(-90 0 83)" fill="#CBD2D9"/>
<rect x="5" y="8" width="70" height="70" rx="2" fill="#1F2933"/>
<ellipse cx="6" cy="4" rx="1" ry="1" fill="#616E7C"/>
<ellipse cx="10" cy="4" rx="1" ry="1" fill="#616E7C"/>
<ellipse cx="14" cy="4" rx="1" ry="1" fill="#616E7C"/>
<rect x="10" y="13" width="50" height="1.62162" rx="0.81081" fill="#F5F7FA"/>
<rect x="10" y="17.8649" width="44" height="1.62162" rx="0.810809" fill="#F5F7FA"/>
<rect x="10" y="56.7839" width="44" height="1.62161" rx="0.810804" fill="#F5F7FA"/>
<rect x="10" y="42.1892" width="60" height="1.62162" rx="0.810812" fill="#F5F7FA"/>
<rect x="10" y="27.5946" width="44" height="1.62163" rx="0.810816" fill="#F5F7FA"/>
<rect x="10" y="32.4594" width="11" height="1.62162" rx="0.810812" fill="#F5F7FA"/>
<rect x="10" y="51.9189" width="11" height="1.62163" rx="0.810817" fill="#F5F7FA"/>
<rect x="10" y="61.6486" width="11" height="1.62162" rx="0.810812" fill="#F5F7FA"/>
<rect x="10" y="66.5135" width="11" height="1.62161" rx="0.810806" fill="#F5F7FA"/>
<rect x="10" y="71.3784" width="11" height="1.6216" rx="0.810798" fill="#F5F7FA"/>
<rect x="25.9999" y="71.3784" width="11" height="1.6216" rx="0.810798" fill="#F5F7FA"/>
<rect x="24" y="32.4594" width="11" height="1.62162" rx="0.810812" fill="#F5F7FA"/>
<rect x="10" y="22.7299" width="18" height="1.62162" rx="0.81081" fill="#1992D4"/>
<rect x="10" y="37.3243" width="18" height="1.62163" rx="0.810814" fill="#F5F7FA"/>
<rect x="10" y="47.0541" width="18" height="1.62162" rx="0.810812" fill="#1992D4"/>
</svg>
