<svg width="243" height="160" viewBox="0 0 243 160" fill="none" xmlns="http://www.w3.org/2000/svg">
<rect x="0.5" y="0.5" width="149" height="126" rx="4.5" fill="#1F2933" stroke="#CBD2D9"/>
<rect x="10.5" y="10.5" width="52" height="39" rx="1.5" fill="#1F2933" stroke="#F5F7FA"/>
<rect x="87.5" y="44.5" width="52" height="39" rx="1.5" fill="#1F2933" stroke="#F5F7FA"/>
<rect x="10.5" y="77.5" width="52" height="39" rx="1.5" fill="#1F2933" stroke="#F5F7FA"/>
<line x1="63" y1="29.5" x2="74" y2="29.5" stroke="#F5F7FA"/>
<line x1="74.5" y1="29" x2="74.5" y2="97" stroke="#F5F7FA"/>
<line x1="75" y1="63.5" x2="87" y2="63.5" stroke="#F5F7FA"/>
<line x1="63.0008" y1="96.4919" x2="74.0008" y2="96.5097" stroke="#F5F7FA"/>
<rect x="93.5" y="59.5" width="149" height="100" rx="4.5" fill="#1F2933" stroke="#CBD2D9"/>
<path d="M147.442 89.5684C147.572 88.751 147.482 87.9166 147.186 87.1497C148.361 86.4886 149.621 85.9619 150.948 85.5959C151.283 86.3388 151.809 86.9835 152.475 87.4626C153.269 88.0334 154.222 88.3405 155.2 88.3405C156.178 88.3405 157.131 88.0334 157.925 87.4626C158.591 86.9835 159.117 86.3388 159.452 85.5959C160.783 85.9632 162.046 86.4921 163.212 87.1555C162.917 87.9208 162.828 88.7531 162.958 89.5684C163.113 90.5399 163.571 91.4374 164.267 92.133C164.963 92.8286 165.86 93.2866 166.832 93.4416C167.647 93.5717 168.479 93.4827 169.245 93.1878C169.909 94.3539 170.438 95.6068 170.805 96.9471C170.062 97.2829 169.417 97.8089 168.937 98.4754C168.367 99.2692 168.059 100.222 168.059 101.2C168.059 102.178 168.367 103.131 168.937 103.925C169.417 104.591 170.061 105.117 170.804 105.452C170.437 106.783 169.908 108.046 169.245 109.212C168.479 108.917 167.647 108.828 166.832 108.958C165.86 109.113 164.963 109.571 164.267 110.267C163.571 110.963 163.113 111.86 162.958 112.832C162.828 113.647 162.917 114.479 163.212 115.245C162.046 115.909 160.793 116.438 159.453 116.805C159.117 116.062 158.591 115.417 157.925 114.937C157.131 114.367 156.178 114.059 155.2 114.059C154.222 114.059 153.269 114.367 152.475 114.937C151.809 115.417 151.283 116.061 150.948 116.804C149.617 116.437 148.354 115.908 147.188 115.245C147.483 114.479 147.572 113.647 147.442 112.832C147.287 111.86 146.829 110.963 146.133 110.267C145.437 109.571 144.54 109.113 143.568 108.958C142.753 108.828 141.92 108.917 141.154 109.213C140.477 108.031 139.953 106.767 139.595 105.453C140.338 105.117 140.983 104.591 141.463 103.925C142.033 103.131 142.341 102.178 142.341 101.2C142.341 100.222 142.033 99.2692 141.463 98.4754C140.983 97.8091 140.339 97.2833 139.596 96.9475C139.963 95.6167 140.492 94.3544 141.155 93.1879C141.921 93.4827 142.753 93.5716 143.568 93.4416C144.54 93.2866 145.437 92.8286 146.133 92.133C146.829 91.4374 147.287 90.5399 147.442 89.5684ZM155.2 108.367C157.101 108.367 158.924 107.612 160.268 106.268C161.612 104.924 162.367 103.101 162.367 101.2C162.367 99.2993 161.612 97.4764 160.268 96.1324C158.924 94.7884 157.101 94.0333 155.2 94.0333C153.299 94.0333 151.476 94.7884 150.132 96.1324C148.788 97.4764 148.033 99.2993 148.033 101.2C148.033 103.101 148.788 104.924 150.132 106.268C151.476 107.612 153.299 108.367 155.2 108.367Z" fill="#1F2933" stroke="#F5F7FA"/>
<path d="M158.033 101.2C158.033 102.765 156.765 104.033 155.2 104.033C153.635 104.033 152.367 102.765 152.367 101.2C152.367 99.6352 153.635 98.3667 155.2 98.3667C156.765 98.3667 158.033 99.6352 158.033 101.2Z" fill="#1F2933" stroke="#F5F7FA"/>
<path d="M173.642 107.768C173.772 106.951 173.682 106.117 173.386 105.35C174.561 104.689 175.821 104.162 177.147 103.796C177.483 104.539 178.009 105.183 178.675 105.663C179.469 106.233 180.422 106.54 181.4 106.54C182.378 106.54 183.331 106.233 184.125 105.663C184.791 105.183 185.317 104.539 185.652 103.796C186.983 104.163 188.246 104.692 189.412 105.355C189.117 106.121 189.028 106.953 189.158 107.768C189.313 108.74 189.771 109.637 190.467 110.333C191.163 111.029 192.06 111.487 193.031 111.642C193.847 111.772 194.679 111.683 195.445 111.388C196.109 112.554 196.638 113.807 197.005 115.147C196.262 115.483 195.617 116.009 195.137 116.675C194.567 117.469 194.259 118.422 194.259 119.4C194.259 120.378 194.567 121.331 195.137 122.125C195.616 122.791 196.261 123.317 197.004 123.652C196.637 124.983 196.108 126.246 195.444 127.412C194.679 127.117 193.847 127.028 193.031 127.158C192.06 127.313 191.163 127.771 190.467 128.467C189.771 129.163 189.313 130.06 189.158 131.031C189.028 131.847 189.117 132.679 189.412 133.445C188.246 134.109 186.993 134.638 185.653 135.005C185.317 134.262 184.791 133.617 184.125 133.137C183.331 132.567 182.378 132.259 181.4 132.259C180.422 132.259 179.469 132.567 178.675 133.137C178.009 133.616 177.483 134.261 177.147 135.004C175.817 134.637 174.554 134.108 173.388 133.444C173.683 132.679 173.772 131.847 173.642 131.031C173.487 130.06 173.029 129.163 172.333 128.467C171.637 127.771 170.74 127.313 169.768 127.158C168.953 127.028 168.12 127.117 167.354 127.413C166.677 126.231 166.153 124.967 165.795 123.653C166.538 123.317 167.183 122.791 167.663 122.125C168.233 121.331 168.54 120.378 168.54 119.4C168.54 118.422 168.233 117.469 167.663 116.675C167.183 116.009 166.539 115.483 165.796 115.147C166.163 113.817 166.692 112.554 167.355 111.388C168.121 111.683 168.953 111.772 169.768 111.642C170.74 111.487 171.637 111.029 172.333 110.333C173.029 109.637 173.487 108.74 173.642 107.768ZM181.4 126.567C183.301 126.567 185.124 125.812 186.468 124.468C187.812 123.124 188.567 121.301 188.567 119.4C188.567 117.499 187.812 115.676 186.468 114.332C185.124 112.988 183.301 112.233 181.4 112.233C179.499 112.233 177.676 112.988 176.332 114.332C174.988 115.676 174.233 117.499 174.233 119.4C174.233 121.301 174.988 123.124 176.332 124.468C177.676 125.812 179.499 126.567 181.4 126.567Z" fill="#1F2933" stroke="#F5F7FA"/>
</svg>
