<svg width="245" height="239" viewBox="0 0 245 239" fill="none" xmlns="http://www.w3.org/2000/svg">
<rect x="0.5" y="0.5" width="149" height="174" rx="4.5" fill="#1F2933" stroke="#CBD2D9"/>
<path d="M43.608 109.193V104.472C39.6023 104.472 38.6477 102.835 38.6477 99.2898V93.6989C38.6477 91.0398 37.5909 88.7898 32.9886 87.8693V87.2216C37.5909 86.3011 38.6477 84.0341 38.6477 81.375V75.7841C38.6477 72.2557 39.6023 70.6193 43.608 70.6193V65.8807C36.7898 65.8807 32.7841 67.6023 32.7841 75.2898V79.6364C32.7841 83.2159 31.4545 84.6818 27.5852 84.6818V90.4091C31.4545 90.4091 32.7841 91.875 32.7841 95.4545V99.7841C32.7841 107.472 36.7898 109.193 43.608 109.193ZM90.1207 81.8693C89.0469 74.1136 83.081 69.6136 75.3423 69.6136C66.223 69.6136 59.3537 76.2614 59.3537 87.5455C59.3537 98.8125 66.1378 105.477 75.3423 105.477C83.6435 105.477 89.1491 100.108 90.1207 93.4432L83.7457 93.4091C82.9446 97.5 79.6037 99.8011 75.4276 99.8011C69.7685 99.8011 65.7116 95.5568 65.7116 87.5455C65.7116 79.6705 69.7344 75.2898 75.4446 75.2898C79.6889 75.2898 83.0128 77.6932 83.7457 81.8693H90.1207ZM105.653 65.8977V70.6193C109.659 70.6193 110.614 72.2557 110.614 75.8011V81.392C110.614 84.0511 111.67 86.3011 116.273 87.2216V87.8693C111.67 88.7898 110.614 91.0568 110.614 93.7159V99.3068C110.614 102.835 109.659 104.472 105.653 104.472V109.21C112.472 109.21 116.477 107.489 116.477 99.8011V95.4545C116.477 91.875 117.807 90.4091 121.676 90.4091V84.6818C117.807 84.6818 116.477 83.2159 116.477 79.6364V75.3068C116.477 67.6193 112.472 65.8977 105.653 65.8977Z" fill="#1F2933"/>
<path d="M43.608 109.193V110.193H44.608V109.193H43.608ZM43.608 104.472H44.608V103.472H43.608V104.472ZM32.9886 87.8693H31.9886V88.6891L32.7925 88.8499L32.9886 87.8693ZM32.9886 87.2216L32.7925 86.241L31.9886 86.4018V87.2216H32.9886ZM43.608 70.6193V71.6193H44.608V70.6193H43.608ZM43.608 65.8807H44.608V64.8807H43.608V65.8807ZM27.5852 84.6818V83.6818H26.5852V84.6818H27.5852ZM27.5852 90.4091H26.5852V91.4091H27.5852V90.4091ZM44.608 109.193V104.472H42.608V109.193H44.608ZM43.608 103.472C41.6991 103.472 40.8317 103.074 40.3811 102.555C39.8982 101.998 39.6477 101.035 39.6477 99.2898H37.6477C37.6477 101.09 37.8745 102.718 38.8703 103.866C39.8984 105.051 41.5111 105.472 43.608 105.472V103.472ZM39.6477 99.2898V93.6989H37.6477V99.2898H39.6477ZM39.6477 93.6989C39.6477 92.2425 39.3582 90.7502 38.3131 89.4929C37.2745 88.2434 35.613 87.3744 33.1848 86.8887L32.7925 88.8499C34.9665 89.2847 36.1346 90.0009 36.775 90.7713C37.4089 91.5339 37.6477 92.4961 37.6477 93.6989H39.6477ZM33.9886 87.8693V87.2216H31.9886V87.8693H33.9886ZM33.1848 88.2022C35.6148 87.7162 37.2763 86.8421 38.3144 85.5879C39.3582 84.3268 39.6477 82.8312 39.6477 81.375H37.6477C37.6477 82.5779 37.4088 83.5454 36.7737 84.3127C36.1328 85.0869 34.9647 85.8066 32.7925 86.241L33.1848 88.2022ZM39.6477 81.375V75.7841H37.6477V81.375H39.6477ZM39.6477 75.7841C39.6477 74.0483 39.898 73.0894 40.3803 72.5348C40.831 72.0165 41.6992 71.6193 43.608 71.6193V69.6193C41.5111 69.6193 39.8991 70.0403 38.8711 71.2223C37.8748 72.368 37.6477 73.9914 37.6477 75.7841H39.6477ZM44.608 70.6193V65.8807H42.608V70.6193H44.608ZM43.608 64.8807C40.1696 64.8807 37.1718 65.3018 35.0389 66.9026C32.8328 68.5585 31.7841 71.2833 31.7841 75.2898H33.7841C33.7841 71.6087 34.7382 69.629 36.2395 68.5022C37.814 67.3204 40.2281 66.8807 43.608 66.8807V64.8807ZM31.7841 75.2898V79.6364H33.7841V75.2898H31.7841ZM31.7841 79.6364C31.7841 81.3439 31.4585 82.2657 30.9295 82.7934C30.3985 83.3229 29.4357 83.6818 27.5852 83.6818V85.6818C29.6041 85.6818 31.2407 85.3077 32.3418 84.2094C33.4449 83.1093 33.7841 81.5084 33.7841 79.6364H31.7841ZM26.5852 84.6818V90.4091H28.5852V84.6818H26.5852ZM27.5852 91.4091C29.4357 91.4091 30.3985 91.768 30.9295 92.2975C31.4585 92.8252 31.7841 93.747 31.7841 95.4545H33.7841C33.7841 93.5825 33.4449 91.9816 32.3418 90.8815C31.2407 89.7832 29.6041 89.4091 27.5852 89.4091V91.4091ZM31.7841 95.4545V99.7841H33.7841V95.4545H31.7841ZM31.7841 99.7841C31.7841 103.791 32.8328 106.515 35.0389 108.171C37.1718 109.772 40.1696 110.193 43.608 110.193V108.193C40.2281 108.193 37.814 107.753 36.2395 106.572C34.7382 105.445 33.7841 103.465 33.7841 99.7841H31.7841ZM90.1207 81.8693V82.8693H91.2687L91.1113 81.7322L90.1207 81.8693ZM90.1207 93.4432L91.1103 93.5874L91.2762 92.4493L90.1261 92.4432L90.1207 93.4432ZM83.7457 93.4091L83.7511 92.4091L82.9234 92.4047L82.7644 93.2169L83.7457 93.4091ZM83.7457 81.8693L82.7608 82.0422L82.906 82.8693H83.7457V81.8693ZM91.1113 81.7322C90.5419 77.6197 88.6632 74.32 85.8592 72.0552C83.0624 69.7962 79.4048 68.6136 75.3423 68.6136V70.6136C79.0185 70.6136 82.2132 71.6811 84.6025 73.611C86.9846 75.5351 88.6257 78.3633 89.1302 82.0065L91.1113 81.7322ZM75.3423 68.6136C70.5307 68.6136 66.2593 70.3729 63.196 73.667C60.1361 76.9573 58.3537 81.6995 58.3537 87.5455H60.3537C60.3537 82.1073 62.0059 77.8836 64.6606 75.029C67.3117 72.1782 71.0346 70.6136 75.3423 70.6136V68.6136ZM58.3537 87.5455C58.3537 93.3799 60.113 98.1222 63.1625 101.416C66.2164 104.714 70.4892 106.477 75.3423 106.477V104.477C70.9909 104.477 67.2694 102.908 64.6301 100.057C61.9864 97.2017 60.3537 92.9781 60.3537 87.5455H58.3537ZM75.3423 106.477C84.1331 106.477 90.0661 100.75 91.1103 93.5874L89.1312 93.2989C88.2322 99.4655 83.1538 104.477 75.3423 104.477V106.477ZM90.1261 92.4432L83.7511 92.4091L83.7404 94.4091L90.1154 94.4432L90.1261 92.4432ZM82.7644 93.2169C82.0706 96.7596 79.2108 98.8011 75.4276 98.8011V100.801C79.9966 100.801 83.8186 98.2404 84.7271 93.6013L82.7644 93.2169ZM75.4276 98.8011C72.8657 98.8011 70.729 97.8504 69.2151 96.0367C67.6855 94.2042 66.7116 91.3918 66.7116 87.5455H64.7116C64.7116 91.7104 65.7662 95.0259 67.6797 97.3184C69.609 99.6297 72.3303 100.801 75.4276 100.801V98.8011ZM66.7116 87.5455C66.7116 83.769 67.6762 80.9536 69.2075 79.1017C70.7229 77.2689 72.8648 76.2898 75.4446 76.2898V74.2898C72.3141 74.2898 69.5896 75.501 67.6661 77.8273C65.7585 80.1344 64.7116 83.4469 64.7116 87.5455H66.7116ZM75.4446 76.2898C79.2758 76.2898 82.1237 78.4123 82.7608 82.0422L84.7307 81.6964C83.9019 76.974 80.1021 74.2898 75.4446 74.2898V76.2898ZM83.7457 82.8693H90.1207V80.8693H83.7457V82.8693ZM105.653 65.8977V64.8977H104.653V65.8977H105.653ZM105.653 70.6193H104.653V71.6193H105.653V70.6193ZM116.273 87.2216H117.273V86.4018L116.469 86.241L116.273 87.2216ZM116.273 87.8693L116.469 88.8499L117.273 88.6891V87.8693H116.273ZM105.653 104.472V103.472H104.653V104.472H105.653ZM105.653 109.21H104.653V110.21H105.653V109.21ZM121.676 90.4091V91.4091H122.676V90.4091H121.676ZM121.676 84.6818H122.676V83.6818H121.676V84.6818ZM104.653 65.8977V70.6193H106.653V65.8977H104.653ZM105.653 71.6193C107.562 71.6193 108.43 72.0165 108.88 72.536C109.363 73.0926 109.614 74.0561 109.614 75.8011H111.614C111.614 74.0008 111.387 72.3733 110.391 71.2254C109.363 70.0403 107.75 69.6193 105.653 69.6193V71.6193ZM109.614 75.8011V81.392H111.614V75.8011H109.614ZM109.614 81.392C109.614 82.8484 109.903 84.3407 110.948 85.598C111.987 86.8475 113.648 87.7165 116.077 88.2022L116.469 86.241C114.295 85.8062 113.127 85.09 112.486 84.3196C111.852 83.557 111.614 82.5948 111.614 81.392H109.614ZM115.273 87.2216V87.8693H117.273V87.2216H115.273ZM116.077 86.8887C113.647 87.3747 111.985 88.2488 110.947 89.503C109.903 90.7641 109.614 92.2597 109.614 93.7159H111.614C111.614 92.513 111.853 91.5455 112.488 90.7783C113.129 90.004 114.297 89.2843 116.469 88.8499L116.077 86.8887ZM109.614 93.7159V99.3068H111.614V93.7159H109.614ZM109.614 99.3068C109.614 101.043 109.363 102.002 108.881 102.556C108.43 103.074 107.562 103.472 105.653 103.472V105.472C107.75 105.472 109.362 105.051 110.39 103.869C111.387 102.723 111.614 101.099 111.614 99.3068H109.614ZM104.653 104.472V109.21H106.653V104.472H104.653ZM105.653 110.21C109.092 110.21 112.09 109.789 114.222 108.188C116.429 106.532 117.477 103.808 117.477 99.8011H115.477C115.477 103.482 114.523 105.462 113.022 106.589C111.447 107.771 109.033 108.21 105.653 108.21V110.21ZM117.477 99.8011V95.4545H115.477V99.8011H117.477ZM117.477 95.4545C117.477 93.747 117.803 92.8252 118.332 92.2975C118.863 91.768 119.826 91.4091 121.676 91.4091V89.4091C119.657 89.4091 118.021 89.7832 116.92 90.8815C115.816 91.9816 115.477 93.5825 115.477 95.4545H117.477ZM122.676 90.4091V84.6818H120.676V90.4091H122.676ZM121.676 83.6818C119.826 83.6818 118.863 83.3229 118.332 82.7934C117.803 82.2657 117.477 81.3439 117.477 79.6364H115.477C115.477 81.5084 115.816 83.1093 116.92 84.2094C118.021 85.3077 119.657 85.6818 121.676 85.6818V83.6818ZM117.477 79.6364V75.3068H115.477V79.6364H117.477ZM117.477 75.3068C117.477 71.3004 116.429 68.5755 114.222 66.9197C112.09 65.3188 109.092 64.8977 105.653 64.8977V66.8977C109.033 66.8977 111.447 67.3374 113.022 68.5192C114.523 69.6461 115.477 71.6258 115.477 75.3068H117.477Z" fill="#F5F7FA"/>
<path d="M33.0611 45.1385C34.8153 45.142 35.8629 43.7571 35.8629 41.3707C35.8629 38.9986 34.8082 37.6278 33.0611 37.6278C31.3139 37.6278 30.2628 38.995 30.2592 41.3707C30.2592 43.7536 31.3068 45.1385 33.0611 45.1385ZM33.0611 44.027C32.1555 44.027 31.5874 43.1179 31.5909 41.3707C31.5945 39.6378 32.1591 38.7251 33.0611 38.7251C33.9666 38.7251 34.5312 39.6378 34.5348 41.3707C34.5348 43.1179 33.9702 44.027 33.0611 44.027ZM40.0009 37.7273H38.7473L36.9398 38.8885V40.0959L38.6408 39.0092H38.6834V45H40.0009V37.7273ZM44.8056 37.7273H43.552L41.7445 38.8885V40.0959L43.4455 39.0092H43.4881V45H44.8056V37.7273ZM49.3404 45.1385C51.0946 45.142 52.1422 43.7571 52.1422 41.3707C52.1422 38.9986 51.0875 37.6278 49.3404 37.6278C47.5932 37.6278 46.5421 38.995 46.5385 41.3707C46.5385 43.7536 47.5861 45.1385 49.3404 45.1385ZM49.3404 44.027C48.4348 44.027 47.8667 43.1179 47.8702 41.3707C47.8738 39.6378 48.4384 38.7251 49.3404 38.7251C50.2459 38.7251 50.8105 39.6378 50.8141 41.3707C50.8141 43.1179 50.2495 44.027 49.3404 44.027ZM56.0103 45.1385C57.7646 45.142 58.8121 43.7571 58.8121 41.3707C58.8121 38.9986 57.7575 37.6278 56.0103 37.6278C54.2631 37.6278 53.212 38.995 53.2085 41.3707C53.2085 43.7536 54.256 45.1385 56.0103 45.1385ZM56.0103 44.027C55.1048 44.027 54.5366 43.1179 54.5401 41.3707C54.5437 39.6378 55.1083 38.7251 56.0103 38.7251C56.9158 38.7251 57.4805 39.6378 57.484 41.3707C57.484 43.1179 56.9194 44.027 56.0103 44.027ZM62.6802 45.1385C64.4345 45.142 65.4821 43.7571 65.4821 41.3707C65.4821 38.9986 64.4274 37.6278 62.6802 37.6278C60.9331 37.6278 59.8819 38.995 59.8784 41.3707C59.8784 43.7536 60.926 45.1385 62.6802 45.1385ZM62.6802 44.027C61.7747 44.027 61.2065 43.1179 61.21 41.3707C61.2136 39.6378 61.7782 38.7251 62.6802 38.7251C63.5858 38.7251 64.1504 39.6378 64.1539 41.3707C64.1539 43.1179 63.5893 44.027 62.6802 44.027ZM69.62 37.7273H68.3665L66.5589 38.8885V40.0959L68.2599 39.0092H68.3026V45H69.62V37.7273ZM74.4247 37.7273H73.1712L71.3636 38.8885V40.0959L73.0646 39.0092H73.1072V45H74.4247V37.7273ZM81.44 45.1385C83.1942 45.142 84.2418 43.7571 84.2418 41.3707C84.2418 38.9986 83.1871 37.6278 81.44 37.6278C79.6928 37.6278 78.6417 38.995 78.6381 41.3707C78.6381 43.7536 79.6857 45.1385 81.44 45.1385ZM81.44 44.027C80.5344 44.027 79.9663 43.1179 79.9698 41.3707C79.9734 39.6378 80.538 38.7251 81.44 38.7251C82.3455 38.7251 82.9102 39.6378 82.9137 41.3707C82.9137 43.1179 82.3491 44.027 81.44 44.027ZM88.3798 37.7273H87.1262L85.3187 38.8885V40.0959L87.0197 39.0092H87.0623V45H88.3798V37.7273ZM93.1845 37.7273H91.9309L90.1234 38.8885V40.0959L91.8244 39.0092H91.867V45H93.1845V37.7273ZM97.7193 45.1385C99.4735 45.142 100.521 43.7571 100.521 41.3707C100.521 38.9986 99.4664 37.6278 97.7193 37.6278C95.9721 37.6278 94.921 38.995 94.9174 41.3707C94.9174 43.7536 95.965 45.1385 97.7193 45.1385ZM97.7193 44.027C96.8137 44.027 96.2456 43.1179 96.2491 41.3707C96.2527 39.6378 96.8173 38.7251 97.7193 38.7251C98.6248 38.7251 99.1895 39.6378 99.193 41.3707C99.193 43.1179 98.6284 44.027 97.7193 44.027ZM104.659 37.7273H103.406L101.598 38.8885V40.0959L103.299 39.0092H103.342V45H104.659V37.7273ZM109.464 37.7273H108.21L106.403 38.8885V40.0959L108.104 39.0092H108.146V45H109.464V37.7273ZM114.268 37.7273H113.015L111.207 38.8885V40.0959L112.908 39.0092H112.951V45H114.268V37.7273ZM119.073 37.7273H117.82L116.012 38.8885V40.0959L117.713 39.0092H117.756V45H119.073V37.7273ZM30.2632 136.138C32.0175 136.142 33.0651 134.757 33.0651 132.371C33.0651 129.999 32.0104 128.628 30.2632 128.628C28.5161 128.628 27.4649 129.995 27.4614 132.371C27.4614 134.754 28.509 136.138 30.2632 136.138ZM30.2632 135.027C29.3577 135.027 28.7895 134.118 28.7931 132.371C28.7966 130.638 29.3612 129.725 30.2632 129.725C31.1688 129.725 31.7334 130.638 31.7369 132.371C31.7369 134.118 31.1723 135.027 30.2632 135.027ZM37.203 128.727H35.9495L34.142 129.888V131.096L35.843 130.009H35.8856V136H37.203V128.727ZM42.0077 128.727H40.7542L38.9466 129.888V131.096L40.6476 130.009H40.6903V136H42.0077V128.727ZM46.5425 136.138C48.2968 136.142 49.3444 134.757 49.3444 132.371C49.3444 129.999 48.2897 128.628 46.5425 128.628C44.7954 128.628 43.7442 129.995 43.7407 132.371C43.7407 134.754 44.7883 136.138 46.5425 136.138ZM46.5425 135.027C45.637 135.027 45.0688 134.118 45.0724 132.371C45.0759 130.638 45.6405 129.725 46.5425 129.725C47.4481 129.725 48.0127 130.638 48.0162 132.371C48.0162 134.118 47.4516 135.027 46.5425 135.027ZM53.2124 136.138C54.9667 136.142 56.0143 134.757 56.0143 132.371C56.0143 129.999 54.9596 128.628 53.2124 128.628C51.4653 128.628 50.4142 129.995 50.4106 132.371C50.4106 134.754 51.4582 136.138 53.2124 136.138ZM53.2124 135.027C52.3069 135.027 51.7387 134.118 51.7423 132.371C51.7458 130.638 52.3105 129.725 53.2124 129.725C54.118 129.725 54.6826 130.638 54.6862 132.371C54.6862 134.118 54.1215 135.027 53.2124 135.027ZM60.1523 128.727H58.8987L57.0912 129.888V131.096L58.7922 130.009H58.8348V136H60.1523V128.727ZM64.6871 136.138C66.4413 136.142 67.4889 134.757 67.4889 132.371C67.4889 129.999 66.4342 128.628 64.6871 128.628C62.9399 128.628 61.8888 129.995 61.8852 132.371C61.8852 134.754 62.9328 136.138 64.6871 136.138ZM64.6871 135.027C63.7815 135.027 63.2133 134.118 63.2169 132.371C63.2204 130.638 63.7851 129.725 64.6871 129.725C65.5926 129.725 66.1572 130.638 66.1608 132.371C66.1608 134.118 65.5961 135.027 64.6871 135.027ZM71.357 136.138C73.1112 136.142 74.1588 134.757 74.1588 132.371C74.1588 129.999 73.1041 128.628 71.357 128.628C69.6098 128.628 68.5587 129.995 68.5551 132.371C68.5551 134.754 69.6027 136.138 71.357 136.138ZM71.357 135.027C70.4514 135.027 69.8833 134.118 69.8868 132.371C69.8904 130.638 70.455 129.725 71.357 129.725C72.2625 129.725 72.8271 130.638 72.8307 132.371C72.8307 134.118 72.2661 135.027 71.357 135.027ZM80.5074 136.138C82.2616 136.142 83.3092 134.757 83.3092 132.371C83.3092 129.999 82.2545 128.628 80.5074 128.628C78.7602 128.628 77.7091 129.995 77.7055 132.371C77.7055 134.754 78.7531 136.138 80.5074 136.138ZM80.5074 135.027C79.6018 135.027 79.0336 134.118 79.0372 132.371C79.0407 130.638 79.6054 129.725 80.5074 129.725C81.4129 129.725 81.9775 130.638 81.9811 132.371C81.9811 134.118 81.4165 135.027 80.5074 135.027ZM87.4472 128.727H86.1936L84.3861 129.888V131.096L86.0871 130.009H86.1297V136H87.4472V128.727ZM92.2519 128.727H90.9983L89.1908 129.888V131.096L90.8918 130.009H90.9344V136H92.2519V128.727ZM96.7867 136.138C98.5409 136.142 99.5885 134.757 99.5885 132.371C99.5885 129.999 98.5338 128.628 96.7867 128.628C95.0395 128.628 93.9884 129.995 93.9848 132.371C93.9848 134.754 95.0324 136.138 96.7867 136.138ZM96.7867 135.027C95.8811 135.027 95.3129 134.118 95.3165 132.371C95.32 130.638 95.8847 129.725 96.7867 129.725C97.6922 129.725 98.2568 130.638 98.2604 132.371C98.2604 134.118 97.6958 135.027 96.7867 135.027ZM103.457 136.138C105.211 136.142 106.258 134.757 106.258 132.371C106.258 129.999 105.204 128.628 103.457 128.628C101.709 128.628 100.658 129.995 100.655 132.371C100.655 134.754 101.702 136.138 103.457 136.138ZM103.457 135.027C102.551 135.027 101.983 134.118 101.986 132.371C101.99 130.638 102.555 129.725 103.457 129.725C104.362 129.725 104.927 130.638 104.93 132.371C104.93 134.118 104.366 135.027 103.457 135.027ZM110.396 128.727H109.143L107.335 129.888V131.096L109.036 130.009H109.079V136H110.396V128.727ZM114.931 136.138C116.685 136.142 117.733 134.757 117.733 132.371C117.733 129.999 116.678 128.628 114.931 128.628C113.184 128.628 112.133 129.995 112.129 132.371C112.129 134.754 113.177 136.138 114.931 136.138ZM114.931 135.027C114.026 135.027 113.457 134.118 113.461 132.371C113.465 130.638 114.029 129.725 114.931 129.725C115.837 129.725 116.401 130.638 116.405 132.371C116.405 134.118 115.84 135.027 114.931 135.027ZM121.871 128.727H120.617L118.81 129.888V131.096L120.511 130.009H120.554V136H121.871V128.727Z" fill="#1F2933"/>
<path d="M33.0611 45.1385L33.0631 44.1385H33.0611V45.1385ZM30.2592 41.3707L29.2592 41.3692V41.3707H30.2592ZM31.5909 41.3707L30.5909 41.3687V41.3687L31.5909 41.3707ZM34.5348 41.3707H35.5348L35.5348 41.3687L34.5348 41.3707ZM33.0591 46.1385C34.2319 46.1409 35.2387 45.6626 35.921 44.7493C36.5752 43.8737 36.8629 42.6925 36.8629 41.3707H34.8629C34.8629 42.4354 34.6269 43.1398 34.3187 43.5523C34.0387 43.9272 33.6446 44.1397 33.0631 44.1385L33.0591 46.1385ZM36.8629 41.3707C36.8629 40.0535 36.5723 38.8784 35.9156 38.0076C35.2318 37.101 34.2268 36.6278 33.0611 36.6278V38.6278C33.6426 38.6278 34.0384 38.8401 34.3188 39.2119C34.6262 39.6195 34.8629 40.3158 34.8629 41.3707H36.8629ZM33.0611 36.6278C31.896 36.6278 30.8915 37.0997 30.2078 38.0064C29.5517 38.8766 29.2612 40.0515 29.2592 41.3692L31.2592 41.3722C31.2608 40.3142 31.4977 39.6177 31.8048 39.2104C32.0844 38.8396 32.479 38.6278 33.0611 38.6278V36.6278ZM29.2592 41.3707C29.2592 42.6911 29.5472 43.8712 30.2012 44.7467C30.883 45.6594 31.8889 46.1385 33.0611 46.1385V44.1385C32.479 44.1385 32.0839 43.9252 31.8034 43.5497C31.4951 43.137 31.2592 42.4332 31.2592 41.3707H29.2592ZM33.0611 43.027C33.0145 43.027 32.9548 43.0354 32.8532 42.8577C32.7212 42.6268 32.5893 42.1622 32.5909 41.3728L30.5909 41.3687C30.589 42.3265 30.7394 43.19 31.1169 43.8504C31.525 44.5641 32.2021 45.027 33.0611 45.027V43.027ZM32.5909 41.3728C32.5925 40.5902 32.7245 40.1265 32.8572 39.8945C32.9601 39.7145 33.0196 39.7251 33.0611 39.7251V37.7251C32.2006 37.7251 31.5267 38.1922 31.121 38.9017C30.745 39.5592 30.5929 40.4183 30.5909 41.3687L32.5909 41.3728ZM33.0611 39.7251C33.1059 39.7251 33.1658 39.716 33.2685 39.8952C33.4012 40.1268 33.5332 40.5901 33.5348 41.3728L35.5348 41.3687C35.5329 40.4184 35.3808 39.5589 35.0039 38.901C34.5969 38.1906 33.9218 37.7251 33.0611 37.7251V39.7251ZM33.5348 41.3707C33.5348 42.1615 33.4029 42.6265 33.2707 42.8577C33.1696 43.0346 33.1103 43.027 33.0611 43.027V45.027C33.921 45.027 34.5985 44.5648 35.007 43.8504C35.3844 43.1903 35.5348 42.3272 35.5348 41.3707H33.5348ZM40.0009 37.7273H41.0009V36.7273H40.0009V37.7273ZM38.7473 37.7273V36.7273H38.4538L38.2068 36.8859L38.7473 37.7273ZM36.9398 38.8885L36.3993 38.0472L35.9398 38.3423V38.8885H36.9398ZM36.9398 40.0959H35.9398V41.9213L37.4782 40.9386L36.9398 40.0959ZM38.6408 39.0092V38.0092H38.3486L38.1024 38.1665L38.6408 39.0092ZM38.6834 39.0092H39.6834V38.0092H38.6834V39.0092ZM38.6834 45H37.6834V46H38.6834V45ZM40.0009 45V46H41.0009V45H40.0009ZM40.0009 36.7273H38.7473V38.7273H40.0009V36.7273ZM38.2068 36.8859L36.3993 38.0472L37.4803 39.7298L39.2878 38.5686L38.2068 36.8859ZM35.9398 38.8885V40.0959H37.9398V38.8885H35.9398ZM37.4782 40.9386L39.1792 39.852L38.1024 38.1665L36.4015 39.2532L37.4782 40.9386ZM38.6408 40.0092H38.6834V38.0092H38.6408V40.0092ZM37.6834 39.0092V45H39.6834V39.0092H37.6834ZM38.6834 46H40.0009V44H38.6834V46ZM41.0009 45V37.7273H39.0009V45H41.0009ZM44.8056 37.7273H45.8056V36.7273H44.8056V37.7273ZM43.552 37.7273V36.7273H43.2585L43.0115 36.8859L43.552 37.7273ZM41.7445 38.8885L41.204 38.0472L40.7445 38.3423V38.8885H41.7445ZM41.7445 40.0959H40.7445V41.9213L42.2829 40.9386L41.7445 40.0959ZM43.4455 39.0092V38.0092H43.1533L42.9071 38.1665L43.4455 39.0092ZM43.4881 39.0092H44.4881V38.0092H43.4881V39.0092ZM43.4881 45H42.4881V46H43.4881V45ZM44.8056 45V46H45.8056V45H44.8056ZM44.8056 36.7273H43.552V38.7273H44.8056V36.7273ZM43.0115 36.8859L41.204 38.0472L42.285 39.7298L44.0925 38.5686L43.0115 36.8859ZM40.7445 38.8885V40.0959H42.7445V38.8885H40.7445ZM42.2829 40.9386L43.9838 39.852L42.9071 38.1665L41.2061 39.2532L42.2829 40.9386ZM43.4455 40.0092H43.4881V38.0092H43.4455V40.0092ZM42.4881 39.0092V45H44.4881V39.0092H42.4881ZM43.4881 46H44.8056V44H43.4881V46ZM45.8056 45V37.7273H43.8056V45H45.8056ZM49.3404 45.1385L49.3424 44.1385H49.3404V45.1385ZM46.5385 41.3707L45.5385 41.3692V41.3707H46.5385ZM47.8702 41.3707L46.8702 41.3687V41.3687L47.8702 41.3707ZM50.8141 41.3707H51.8141L51.8141 41.3687L50.8141 41.3707ZM49.3384 46.1385C50.5112 46.1409 51.518 45.6626 52.2003 44.7493C52.8545 43.8737 53.1422 42.6925 53.1422 41.3707H51.1422C51.1422 42.4354 50.9062 43.1398 50.598 43.5523C50.318 43.9272 49.9239 44.1397 49.3424 44.1385L49.3384 46.1385ZM53.1422 41.3707C53.1422 40.0535 52.8516 38.8784 52.1949 38.0076C51.5111 37.101 50.5061 36.6278 49.3404 36.6278V38.6278C49.9219 38.6278 50.3177 38.8401 50.5981 39.2119C50.9055 39.6195 51.1422 40.3158 51.1422 41.3707H53.1422ZM49.3404 36.6278C48.1753 36.6278 47.1708 37.0997 46.4871 38.0064C45.831 38.8766 45.5405 40.0515 45.5385 41.3692L47.5385 41.3722C47.5401 40.3142 47.777 39.6177 48.0841 39.2104C48.3637 38.8396 48.7583 38.6278 49.3404 38.6278V36.6278ZM45.5385 41.3707C45.5385 42.6911 45.8265 43.8712 46.4805 44.7467C47.1623 45.6594 48.1682 46.1385 49.3404 46.1385V44.1385C48.7583 44.1385 48.3632 43.9252 48.0827 43.5497C47.7744 43.137 47.5385 42.4332 47.5385 41.3707H45.5385ZM49.3404 43.027C49.2938 43.027 49.2341 43.0354 49.1325 42.8577C49.0005 42.6268 48.8686 42.1622 48.8702 41.3728L46.8702 41.3687C46.8683 42.3265 47.0187 43.19 47.3962 43.8504C47.8043 44.5641 48.4814 45.027 49.3404 45.027V43.027ZM48.8702 41.3728C48.8718 40.5902 49.0038 40.1265 49.1365 39.8945C49.2394 39.7145 49.2989 39.7251 49.3404 39.7251V37.7251C48.4799 37.7251 47.806 38.1922 47.4003 38.9017C47.0243 39.5592 46.8722 40.4183 46.8702 41.3687L48.8702 41.3728ZM49.3404 39.7251C49.3852 39.7251 49.4451 39.716 49.5478 39.8952C49.6805 40.1268 49.8125 40.5901 49.8141 41.3728L51.8141 41.3687C51.8121 40.4184 51.6601 39.5589 51.2832 38.901C50.8762 38.1906 50.2011 37.7251 49.3404 37.7251V39.7251ZM49.8141 41.3707C49.8141 42.1615 49.6822 42.6265 49.55 42.8577C49.4489 43.0346 49.3896 43.027 49.3404 43.027V45.027C50.2003 45.027 50.8778 44.5648 51.2863 43.8504C51.6637 43.1903 51.8141 42.3272 51.8141 41.3707H49.8141ZM56.0103 45.1385L56.0123 44.1385H56.0103V45.1385ZM53.2085 41.3707L52.2085 41.3692V41.3707H53.2085ZM54.5401 41.3707L53.5401 41.3687V41.3687L54.5401 41.3707ZM57.484 41.3707H58.484L58.484 41.3687L57.484 41.3707ZM56.0083 46.1385C57.1811 46.1409 58.1879 45.6626 58.8702 44.7493C59.5244 43.8737 59.8121 42.6925 59.8121 41.3707H57.8121C57.8121 42.4354 57.5761 43.1398 57.2679 43.5523C56.9879 43.9272 56.5938 44.1397 56.0123 44.1385L56.0083 46.1385ZM59.8121 41.3707C59.8121 40.0535 59.5215 38.8784 58.8648 38.0076C58.1811 37.101 57.176 36.6278 56.0103 36.6278V38.6278C56.5918 38.6278 56.9876 38.8401 57.268 39.2119C57.5755 39.6195 57.8121 40.3158 57.8121 41.3707H59.8121ZM56.0103 36.6278C54.8452 36.6278 53.8407 37.0997 53.1571 38.0064C52.5009 38.8766 52.2104 40.0515 52.2085 41.3692L54.2085 41.3722C54.21 40.3142 54.4469 39.6177 54.754 39.2104C55.0336 38.8396 55.4282 38.6278 56.0103 38.6278V36.6278ZM52.2085 41.3707C52.2085 42.6911 52.4964 43.8712 53.1504 44.7467C53.8322 45.6594 54.8382 46.1385 56.0103 46.1385V44.1385C55.4282 44.1385 55.0332 43.9252 54.7527 43.5497C54.4443 43.137 54.2085 42.4332 54.2085 41.3707H52.2085ZM56.0103 43.027C55.9637 43.027 55.904 43.0354 55.8024 42.8577C55.6704 42.6268 55.5385 42.1622 55.5401 41.3728L53.5401 41.3687C53.5382 42.3265 53.6886 43.19 54.0662 43.8504C54.4742 44.5641 55.1514 45.027 56.0103 45.027V43.027ZM55.5401 41.3728C55.5417 40.5902 55.6737 40.1265 55.8064 39.8945C55.9093 39.7145 55.9688 39.7251 56.0103 39.7251V37.7251C55.1498 37.7251 54.476 38.1922 54.0702 38.9017C53.6942 39.5592 53.5421 40.4183 53.5401 41.3687L55.5401 41.3728ZM56.0103 39.7251C56.0551 39.7251 56.1151 39.716 56.2177 39.8952C56.3504 40.1268 56.4824 40.5901 56.484 41.3728L58.484 41.3687C58.4821 40.4184 58.33 39.5589 57.9531 38.901C57.5462 38.1906 56.871 37.7251 56.0103 37.7251V39.7251ZM56.484 41.3707C56.484 42.1615 56.3522 42.6265 56.2199 42.8577C56.1188 43.0346 56.0595 43.027 56.0103 43.027V45.027C56.8702 45.027 57.5477 44.5648 57.9562 43.8504C58.3336 43.1903 58.484 42.3272 58.484 41.3707H56.484ZM62.6802 45.1385L62.6822 44.1385H62.6802V45.1385ZM59.8784 41.3707L58.8784 41.3692V41.3707H59.8784ZM61.21 41.3707L60.2101 41.3687V41.3687L61.21 41.3707ZM64.1539 41.3707H65.1539L65.1539 41.3687L64.1539 41.3707ZM62.6782 46.1385C63.851 46.1409 64.8578 45.6626 65.5401 44.7493C66.1943 43.8737 66.4821 42.6925 66.4821 41.3707H64.4821C64.4821 42.4354 64.246 43.1398 63.9379 43.5523C63.6578 43.9272 63.2637 44.1397 62.6822 44.1385L62.6782 46.1385ZM66.4821 41.3707C66.4821 40.0535 66.1914 38.8784 65.5347 38.0076C64.851 37.101 63.8459 36.6278 62.6802 36.6278V38.6278C63.2617 38.6278 63.6575 38.8401 63.9379 39.2119C64.2454 39.6195 64.4821 40.3158 64.4821 41.3707H66.4821ZM62.6802 36.6278C61.5151 36.6278 60.5106 37.0997 59.827 38.0064C59.1708 38.8766 58.8803 40.0515 58.8784 41.3692L60.8784 41.3722C60.88 40.3142 61.1168 39.6177 61.4239 39.2104C61.7035 38.8396 62.0982 38.6278 62.6802 38.6278V36.6278ZM58.8784 41.3707C58.8784 42.6911 59.1663 43.8712 59.8203 44.7467C60.5022 45.6594 61.5081 46.1385 62.6802 46.1385V44.1385C62.0981 44.1385 61.7031 43.9252 61.4226 43.5497C61.1142 43.137 60.8784 42.4332 60.8784 41.3707H58.8784ZM62.6802 43.027C62.6336 43.027 62.5739 43.0354 62.4724 42.8577C62.3403 42.6268 62.2084 42.1622 62.21 41.3728L60.2101 41.3687C60.2081 42.3265 60.3585 43.19 60.7361 43.8504C61.1441 44.5641 61.8213 45.027 62.6802 45.027V43.027ZM62.21 41.3728C62.2117 40.5902 62.3436 40.1265 62.4763 39.8945C62.5793 39.7145 62.6387 39.7251 62.6802 39.7251V37.7251C61.8198 37.7251 61.1459 38.1922 60.7401 38.9017C60.3641 39.5592 60.212 40.4183 60.2101 41.3687L62.21 41.3728ZM62.6802 39.7251C62.7251 39.7251 62.785 39.716 62.8876 39.8952C63.0203 40.1268 63.1523 40.5901 63.1539 41.3728L65.1539 41.3687C65.152 40.4184 64.9999 39.5589 64.623 38.901C64.2161 38.1906 63.5409 37.7251 62.6802 37.7251V39.7251ZM63.1539 41.3707C63.1539 42.1615 63.0221 42.6265 62.8899 42.8577C62.7887 43.0346 62.7294 43.027 62.6802 43.027V45.027C63.5401 45.027 64.2177 44.5648 64.6261 43.8504C65.0035 43.1903 65.1539 42.3272 65.1539 41.3707H63.1539ZM69.62 37.7273H70.62V36.7273H69.62V37.7273ZM68.3665 37.7273V36.7273H68.0729L67.826 36.8859L68.3665 37.7273ZM66.5589 38.8885L66.0184 38.0472L65.5589 38.3423V38.8885H66.5589ZM66.5589 40.0959H65.5589V41.9213L67.0973 40.9386L66.5589 40.0959ZM68.2599 39.0092V38.0092H67.9678L67.7216 38.1665L68.2599 39.0092ZM68.3026 39.0092H69.3026V38.0092H68.3026V39.0092ZM68.3026 45H67.3026V46H68.3026V45ZM69.62 45V46H70.62V45H69.62ZM69.62 36.7273H68.3665V38.7273H69.62V36.7273ZM67.826 36.8859L66.0184 38.0472L67.0995 39.7298L68.907 38.5686L67.826 36.8859ZM65.5589 38.8885V40.0959H67.5589V38.8885H65.5589ZM67.0973 40.9386L68.7983 39.852L67.7216 38.1665L66.0206 39.2532L67.0973 40.9386ZM68.2599 40.0092H68.3026V38.0092H68.2599V40.0092ZM67.3026 39.0092V45H69.3026V39.0092H67.3026ZM68.3026 46H69.62V44H68.3026V46ZM70.62 45V37.7273H68.62V45H70.62ZM74.4247 37.7273H75.4247V36.7273H74.4247V37.7273ZM73.1712 37.7273V36.7273H72.8776L72.6307 36.8859L73.1712 37.7273ZM71.3636 38.8885L70.8231 38.0472L70.3636 38.3423V38.8885H71.3636ZM71.3636 40.0959H70.3636V41.9213L71.902 40.9386L71.3636 40.0959ZM73.0646 39.0092V38.0092H72.7725L72.5263 38.1665L73.0646 39.0092ZM73.1072 39.0092H74.1072V38.0092H73.1072V39.0092ZM73.1072 45H72.1072V46H73.1072V45ZM74.4247 45V46H75.4247V45H74.4247ZM74.4247 36.7273H73.1712V38.7273H74.4247V36.7273ZM72.6307 36.8859L70.8231 38.0472L71.9041 39.7298L73.7117 38.5686L72.6307 36.8859ZM70.3636 38.8885V40.0959H72.3636V38.8885H70.3636ZM71.902 40.9386L73.603 39.852L72.5263 38.1665L70.8253 39.2532L71.902 40.9386ZM73.0646 40.0092H73.1072V38.0092H73.0646V40.0092ZM72.1072 39.0092V45H74.1072V39.0092H72.1072ZM73.1072 46H74.4247V44H73.1072V46ZM75.4247 45V37.7273H73.4247V45H75.4247ZM81.44 45.1385L81.442 44.1385H81.44V45.1385ZM78.6381 41.3707L77.6381 41.3692V41.3707H78.6381ZM79.9698 41.3707L78.9698 41.3687V41.3687L79.9698 41.3707ZM82.9137 41.3707H83.9137L83.9137 41.3687L82.9137 41.3707ZM81.438 46.1385C82.6108 46.1409 83.6176 45.6626 84.2999 44.7493C84.9541 43.8737 85.2418 42.6925 85.2418 41.3707H83.2418C83.2418 42.4354 83.0058 43.1398 82.6976 43.5523C82.4176 43.9272 82.0235 44.1397 81.442 44.1385L81.438 46.1385ZM85.2418 41.3707C85.2418 40.0535 84.9512 38.8784 84.2945 38.0076C83.6108 37.101 82.6057 36.6278 81.44 36.6278V38.6278C82.0215 38.6278 82.4173 38.8401 82.6977 39.2119C83.0051 39.6195 83.2418 40.3158 83.2418 41.3707H85.2418ZM81.44 36.6278C80.2749 36.6278 79.2704 37.0997 78.5867 38.0064C77.9306 38.8766 77.6401 40.0515 77.6381 41.3692L79.6381 41.3722C79.6397 40.3142 79.8766 39.6177 80.1837 39.2104C80.4633 38.8396 80.8579 38.6278 81.44 38.6278V36.6278ZM77.6381 41.3707C77.6381 42.6911 77.9261 43.8712 78.5801 44.7467C79.2619 45.6594 80.2678 46.1385 81.44 46.1385V44.1385C80.8579 44.1385 80.4629 43.9252 80.1823 43.5497C79.874 43.137 79.6381 42.4332 79.6381 41.3707H77.6381ZM81.44 43.027C81.3934 43.027 81.3337 43.0354 81.2321 42.8577C81.1001 42.6268 80.9682 42.1622 80.9698 41.3728L78.9698 41.3687C78.9679 42.3265 79.1183 43.19 79.4959 43.8504C79.9039 44.5641 80.581 45.027 81.44 45.027V43.027ZM80.9698 41.3728C80.9714 40.5902 81.1034 40.1265 81.2361 39.8945C81.339 39.7145 81.3985 39.7251 81.44 39.7251V37.7251C80.5795 37.7251 79.9056 38.1922 79.4999 38.9017C79.1239 39.5592 78.9718 40.4183 78.9698 41.3687L80.9698 41.3728ZM81.44 39.7251C81.4848 39.7251 81.5448 39.716 81.6474 39.8952C81.7801 40.1268 81.9121 40.5901 81.9137 41.3728L83.9137 41.3687C83.9118 40.4184 83.7597 39.5589 83.3828 38.901C82.9758 38.1906 82.3007 37.7251 81.44 37.7251V39.7251ZM81.9137 41.3707C81.9137 42.1615 81.7818 42.6265 81.6496 42.8577C81.5485 43.0346 81.4892 43.027 81.44 43.027V45.027C82.2999 45.027 82.9774 44.5648 83.3859 43.8504C83.7633 43.1903 83.9137 42.3272 83.9137 41.3707H81.9137ZM88.3798 37.7273H89.3798V36.7273H88.3798V37.7273ZM87.1262 37.7273V36.7273H86.8327L86.5857 36.8859L87.1262 37.7273ZM85.3187 38.8885L84.7782 38.0472L84.3187 38.3423V38.8885H85.3187ZM85.3187 40.0959H84.3187V41.9213L85.8571 40.9386L85.3187 40.0959ZM87.0197 39.0092V38.0092H86.7276L86.4814 38.1665L87.0197 39.0092ZM87.0623 39.0092H88.0623V38.0092H87.0623V39.0092ZM87.0623 45H86.0623V46H87.0623V45ZM88.3798 45V46H89.3798V45H88.3798ZM88.3798 36.7273H87.1262V38.7273H88.3798V36.7273ZM86.5857 36.8859L84.7782 38.0472L85.8592 39.7298L87.6667 38.5686L86.5857 36.8859ZM84.3187 38.8885V40.0959H86.3187V38.8885H84.3187ZM85.8571 40.9386L87.5581 39.852L86.4814 38.1665L84.7804 39.2532L85.8571 40.9386ZM87.0197 40.0092H87.0623V38.0092H87.0197V40.0092ZM86.0623 39.0092V45H88.0623V39.0092H86.0623ZM87.0623 46H88.3798V44H87.0623V46ZM89.3798 45V37.7273H87.3798V45H89.3798ZM93.1845 37.7273H94.1845V36.7273H93.1845V37.7273ZM91.9309 37.7273V36.7273H91.6374L91.3904 36.8859L91.9309 37.7273ZM90.1234 38.8885L89.5829 38.0472L89.1234 38.3423V38.8885H90.1234ZM90.1234 40.0959H89.1234V41.9213L90.6618 40.9386L90.1234 40.0959ZM91.8244 39.0092V38.0092H91.5322L91.286 38.1665L91.8244 39.0092ZM91.867 39.0092H92.867V38.0092H91.867V39.0092ZM91.867 45H90.867V46H91.867V45ZM93.1845 45V46H94.1845V45H93.1845ZM93.1845 36.7273H91.9309V38.7273H93.1845V36.7273ZM91.3904 36.8859L89.5829 38.0472L90.6639 39.7298L92.4714 38.5686L91.3904 36.8859ZM89.1234 38.8885V40.0959H91.1234V38.8885H89.1234ZM90.6618 40.9386L92.3628 39.852L91.286 38.1665L89.585 39.2532L90.6618 40.9386ZM91.8244 40.0092H91.867V38.0092H91.8244V40.0092ZM90.867 39.0092V45H92.867V39.0092H90.867ZM91.867 46H93.1845V44H91.867V46ZM94.1845 45V37.7273H92.1845V45H94.1845ZM97.7193 45.1385L97.7213 44.1385H97.7193V45.1385ZM94.9174 41.3707L93.9174 41.3692V41.3707H94.9174ZM96.2491 41.3707L95.2491 41.3687V41.3687L96.2491 41.3707ZM99.193 41.3707H100.193L100.193 41.3687L99.193 41.3707ZM97.7173 46.1385C98.8901 46.1409 99.8969 45.6626 100.579 44.7493C101.233 43.8737 101.521 42.6925 101.521 41.3707H99.5211C99.5211 42.4354 99.2851 43.1398 98.9769 43.5523C98.6969 43.9272 98.3028 44.1397 97.7213 44.1385L97.7173 46.1385ZM101.521 41.3707C101.521 40.0535 101.23 38.8784 100.574 38.0076C99.8901 37.101 98.885 36.6278 97.7193 36.6278V38.6278C98.3008 38.6278 98.6966 38.8401 98.977 39.2119C99.2844 39.6195 99.5211 40.3158 99.5211 41.3707H101.521ZM97.7193 36.6278C96.5542 36.6278 95.5497 37.0997 94.866 38.0064C94.2099 38.8766 93.9194 40.0515 93.9174 41.3692L95.9174 41.3722C95.919 40.3142 96.1559 39.6177 96.463 39.2104C96.7426 38.8396 97.1372 38.6278 97.7193 38.6278V36.6278ZM93.9174 41.3707C93.9174 42.6911 94.2054 43.8712 94.8594 44.7467C95.5412 45.6594 96.5471 46.1385 97.7193 46.1385V44.1385C97.1372 44.1385 96.7421 43.9252 96.4616 43.5497C96.1533 43.137 95.9174 42.4332 95.9174 41.3707H93.9174ZM97.7193 43.027C97.6727 43.027 97.613 43.0354 97.5114 42.8577C97.3794 42.6268 97.2475 42.1622 97.2491 41.3728L95.2491 41.3687C95.2472 42.3265 95.3976 43.19 95.7752 43.8504C96.1832 44.5641 96.8603 45.027 97.7193 45.027V43.027ZM97.2491 41.3728C97.2507 40.5902 97.3827 40.1265 97.5154 39.8945C97.6183 39.7145 97.6778 39.7251 97.7193 39.7251V37.7251C96.8588 37.7251 96.1849 38.1922 95.7792 38.9017C95.4032 39.5592 95.2511 40.4183 95.2491 41.3687L97.2491 41.3728ZM97.7193 39.7251C97.7641 39.7251 97.8241 39.716 97.9267 39.8952C98.0594 40.1268 98.1914 40.5901 98.193 41.3728L100.193 41.3687C100.191 40.4184 100.039 39.5589 99.6621 38.901C99.2551 38.1906 98.58 37.7251 97.7193 37.7251V39.7251ZM98.193 41.3707C98.193 42.1615 98.0611 42.6265 97.9289 42.8577C97.8278 43.0346 97.7685 43.027 97.7193 43.027V45.027C98.5792 45.027 99.2567 44.5648 99.6652 43.8504C100.043 43.1903 100.193 42.3272 100.193 41.3707H98.193ZM104.659 37.7273H105.659V36.7273H104.659V37.7273ZM103.406 37.7273V36.7273H103.112L102.865 36.8859L103.406 37.7273ZM101.598 38.8885L101.058 38.0472L100.598 38.3423V38.8885H101.598ZM101.598 40.0959H100.598V41.9213L102.136 40.9386L101.598 40.0959ZM103.299 39.0092V38.0092H103.007L102.761 38.1665L103.299 39.0092ZM103.342 39.0092H104.342V38.0092H103.342V39.0092ZM103.342 45H102.342V46H103.342V45ZM104.659 45V46H105.659V45H104.659ZM104.659 36.7273H103.406V38.7273H104.659V36.7273ZM102.865 36.8859L101.058 38.0472L102.139 39.7298L103.946 38.5686L102.865 36.8859ZM100.598 38.8885V40.0959H102.598V38.8885H100.598ZM102.136 40.9386L103.837 39.852L102.761 38.1665L101.06 39.2532L102.136 40.9386ZM103.299 40.0092H103.342V38.0092H103.299V40.0092ZM102.342 39.0092V45H104.342V39.0092H102.342ZM103.342 46H104.659V44H103.342V46ZM105.659 45V37.7273H103.659V45H105.659ZM109.464 37.7273H110.464V36.7273H109.464V37.7273ZM108.21 37.7273V36.7273H107.917L107.67 36.8859L108.21 37.7273ZM106.403 38.8885L105.862 38.0472L105.403 38.3423V38.8885H106.403ZM106.403 40.0959H105.403V41.9213L106.941 40.9386L106.403 40.0959ZM108.104 39.0092V38.0092H107.812L107.565 38.1665L108.104 39.0092ZM108.146 39.0092H109.146V38.0092H108.146V39.0092ZM108.146 45H107.146V46H108.146V45ZM109.464 45V46H110.464V45H109.464ZM109.464 36.7273H108.21V38.7273H109.464V36.7273ZM107.67 36.8859L105.862 38.0472L106.943 39.7298L108.751 38.5686L107.67 36.8859ZM105.403 38.8885V40.0959H107.403V38.8885H105.403ZM106.941 40.9386L108.642 39.852L107.565 38.1665L105.864 39.2532L106.941 40.9386ZM108.104 40.0092H108.146V38.0092H108.104V40.0092ZM107.146 39.0092V45H109.146V39.0092H107.146ZM108.146 46H109.464V44H108.146V46ZM110.464 45V37.7273H108.464V45H110.464ZM114.268 37.7273H115.268V36.7273H114.268V37.7273ZM113.015 37.7273V36.7273H112.721L112.474 36.8859L113.015 37.7273ZM111.207 38.8885L110.667 38.0472L110.207 38.3423V38.8885H111.207ZM111.207 40.0959H110.207V41.9213L111.746 40.9386L111.207 40.0959ZM112.908 39.0092V38.0092H112.616L112.37 38.1665L112.908 39.0092ZM112.951 39.0092H113.951V38.0092H112.951V39.0092ZM112.951 45H111.951V46H112.951V45ZM114.268 45V46H115.268V45H114.268ZM114.268 36.7273H113.015V38.7273H114.268V36.7273ZM112.474 36.8859L110.667 38.0472L111.748 39.7298L113.555 38.5686L112.474 36.8859ZM110.207 38.8885V40.0959H112.207V38.8885H110.207ZM111.746 40.9386L113.447 39.852L112.37 38.1665L110.669 39.2532L111.746 40.9386ZM112.908 40.0092H112.951V38.0092H112.908V40.0092ZM111.951 39.0092V45H113.951V39.0092H111.951ZM112.951 46H114.268V44H112.951V46ZM115.268 45V37.7273H113.268V45H115.268ZM119.073 37.7273H120.073V36.7273H119.073V37.7273ZM117.82 37.7273V36.7273H117.526L117.279 36.8859L117.82 37.7273ZM116.012 38.8885L115.472 38.0472L115.012 38.3423V38.8885H116.012ZM116.012 40.0959H115.012V41.9213L116.55 40.9386L116.012 40.0959ZM117.713 39.0092V38.0092H117.421L117.175 38.1665L117.713 39.0092ZM117.756 39.0092H118.756V38.0092H117.756V39.0092ZM117.756 45H116.756V46H117.756V45ZM119.073 45V46H120.073V45H119.073ZM119.073 36.7273H117.82V38.7273H119.073V36.7273ZM117.279 36.8859L115.472 38.0472L116.553 39.7298L118.36 38.5686L117.279 36.8859ZM115.012 38.8885V40.0959H117.012V38.8885H115.012ZM116.55 40.9386L118.251 39.852L117.175 38.1665L115.474 39.2532L116.55 40.9386ZM117.713 40.0092H117.756V38.0092H117.713V40.0092ZM116.756 39.0092V45H118.756V39.0092H116.756ZM117.756 46H119.073V44H117.756V46ZM120.073 45V37.7273H118.073V45H120.073ZM30.2632 136.138L30.2653 135.138H30.2632V136.138ZM27.4614 132.371L26.4614 132.369V132.371H27.4614ZM28.7931 132.371L27.7931 132.369V132.369L28.7931 132.371ZM31.7369 132.371H32.737L32.7369 132.369L31.7369 132.371ZM30.2612 137.138C31.434 137.141 32.4408 136.663 33.1231 135.749C33.7773 134.874 34.0651 133.692 34.0651 132.371H32.0651C32.0651 133.435 31.829 134.14 31.5209 134.552C31.2408 134.927 30.8467 135.14 30.2653 135.138L30.2612 137.138ZM34.0651 132.371C34.0651 131.054 33.7744 129.878 33.1177 129.008C32.434 128.101 31.4289 127.628 30.2632 127.628V129.628C30.8447 129.628 31.2405 129.84 31.5209 130.212C31.8284 130.62 32.0651 131.316 32.0651 132.371H34.0651ZM30.2632 127.628C29.0981 127.628 28.0936 128.1 27.41 129.006C26.7538 129.877 26.4634 131.052 26.4614 132.369L28.4614 132.372C28.463 131.314 28.6999 130.618 29.0069 130.21C29.2865 129.84 29.6812 129.628 30.2632 129.628V127.628ZM26.4614 132.371C26.4614 133.691 26.7493 134.871 27.4033 135.747C28.0852 136.659 29.0911 137.138 30.2632 137.138V135.138C29.6811 135.138 29.2861 134.925 29.0056 134.55C28.6973 134.137 28.4614 133.433 28.4614 132.371H26.4614ZM30.2632 134.027C30.2166 134.027 30.1569 134.035 30.0554 133.858C29.9233 133.627 29.7915 133.162 29.7931 132.373L27.7931 132.369C27.7911 133.326 27.9416 134.19 28.3191 134.85C28.7271 135.564 29.4043 136.027 30.2632 136.027V134.027ZM29.7931 132.373C29.7947 131.59 29.9267 131.126 30.0593 130.895C30.1623 130.714 30.2217 130.725 30.2632 130.725V128.725C29.4028 128.725 28.7289 129.192 28.3231 129.902C27.9471 130.559 27.795 131.418 27.7931 132.369L29.7931 132.373ZM30.2632 130.725C30.3081 130.725 30.368 130.716 30.4706 130.895C30.6033 131.127 30.7353 131.59 30.737 132.373L32.7369 132.369C32.735 131.418 32.5829 130.559 32.206 129.901C31.7991 129.191 31.1239 128.725 30.2632 128.725V130.725ZM30.7369 132.371C30.7369 133.161 30.6051 133.626 30.4729 133.858C30.3717 134.035 30.3124 134.027 30.2632 134.027V136.027C31.1231 136.027 31.8007 135.565 32.2091 134.85C32.5865 134.19 32.7369 133.327 32.7369 132.371H30.7369ZM37.203 128.727H38.203V127.727H37.203V128.727ZM35.9495 128.727V127.727H35.6559L35.409 127.886L35.9495 128.727ZM34.142 129.888L33.6014 129.047L33.142 129.342V129.888H34.142ZM34.142 131.096H33.142V132.921L34.6803 131.939L34.142 131.096ZM35.843 130.009V129.009H35.5508L35.3046 129.167L35.843 130.009ZM35.8856 130.009H36.8856V129.009H35.8856V130.009ZM35.8856 136H34.8856V137H35.8856V136ZM37.203 136V137H38.203V136H37.203ZM37.203 127.727H35.9495V129.727H37.203V127.727ZM35.409 127.886L33.6014 129.047L34.6825 130.73L36.49 129.569L35.409 127.886ZM33.142 129.888V131.096H35.142V129.888H33.142ZM34.6803 131.939L36.3813 130.852L35.3046 129.167L33.6036 130.253L34.6803 131.939ZM35.843 131.009H35.8856V129.009H35.843V131.009ZM34.8856 130.009V136H36.8856V130.009H34.8856ZM35.8856 137H37.203V135H35.8856V137ZM38.203 136V128.727H36.203V136H38.203ZM42.0077 128.727H43.0077V127.727H42.0077V128.727ZM40.7542 128.727V127.727H40.4606L40.2137 127.886L40.7542 128.727ZM38.9466 129.888L38.4061 129.047L37.9466 129.342V129.888H38.9466ZM38.9466 131.096H37.9466V132.921L39.485 131.939L38.9466 131.096ZM40.6476 130.009V129.009H40.3555L40.1093 129.167L40.6476 130.009ZM40.6903 130.009H41.6903V129.009H40.6903V130.009ZM40.6903 136H39.6903V137H40.6903V136ZM42.0077 136V137H43.0077V136H42.0077ZM42.0077 127.727H40.7542V129.727H42.0077V127.727ZM40.2137 127.886L38.4061 129.047L39.4872 130.73L41.2947 129.569L40.2137 127.886ZM37.9466 129.888V131.096H39.9466V129.888H37.9466ZM39.485 131.939L41.186 130.852L40.1093 129.167L38.4083 130.253L39.485 131.939ZM40.6476 131.009H40.6903V129.009H40.6476V131.009ZM39.6903 130.009V136H41.6903V130.009H39.6903ZM40.6903 137H42.0077V135H40.6903V137ZM43.0077 136V128.727H41.0077V136H43.0077ZM46.5425 136.138L46.5445 135.138H46.5425V136.138ZM43.7407 132.371L42.7407 132.369V132.371H43.7407ZM45.0724 132.371L44.0724 132.369V132.369L45.0724 132.371ZM48.0162 132.371H49.0162L49.0162 132.369L48.0162 132.371ZM46.5405 137.138C47.7133 137.141 48.7201 136.663 49.4024 135.749C50.0566 134.874 50.3444 133.692 50.3444 132.371H48.3444C48.3444 133.435 48.1083 134.14 47.8002 134.552C47.5201 134.927 47.126 135.14 46.5445 135.138L46.5405 137.138ZM50.3444 132.371C50.3444 131.054 50.0537 129.878 49.397 129.008C48.7133 128.101 47.7082 127.628 46.5425 127.628V129.628C47.124 129.628 47.5198 129.84 47.8002 130.212C48.1077 130.62 48.3444 131.316 48.3444 132.371H50.3444ZM46.5425 127.628C45.3774 127.628 44.3729 128.1 43.6893 129.006C43.0331 129.877 42.7426 131.052 42.7407 132.369L44.7407 132.372C44.7423 131.314 44.9792 130.618 45.2862 130.21C45.5658 129.84 45.9605 129.628 46.5425 129.628V127.628ZM42.7407 132.371C42.7407 133.691 43.0286 134.871 43.6826 135.747C44.3645 136.659 45.3704 137.138 46.5425 137.138V135.138C45.9604 135.138 45.5654 134.925 45.2849 134.55C44.9765 134.137 44.7407 133.433 44.7407 132.371H42.7407ZM46.5425 134.027C46.4959 134.027 46.4362 134.035 46.3347 133.858C46.2026 133.627 46.0707 133.162 46.0724 132.373L44.0724 132.369C44.0704 133.326 44.2209 134.19 44.5984 134.85C45.0064 135.564 45.6836 136.027 46.5425 136.027V134.027ZM46.0724 132.373C46.074 131.59 46.2059 131.126 46.3386 130.895C46.4416 130.714 46.501 130.725 46.5425 130.725V128.725C45.6821 128.725 45.0082 129.192 44.6024 129.902C44.2264 130.559 44.0743 131.418 44.0724 132.369L46.0724 132.373ZM46.5425 130.725C46.5874 130.725 46.6473 130.716 46.7499 130.895C46.8826 131.127 47.0146 131.59 47.0162 132.373L49.0162 132.369C49.0143 131.418 48.8622 130.559 48.4853 129.901C48.0784 129.191 47.4032 128.725 46.5425 128.725V130.725ZM47.0162 132.371C47.0162 133.161 46.8844 133.626 46.7522 133.858C46.651 134.035 46.5917 134.027 46.5425 134.027V136.027C47.4024 136.027 48.08 135.565 48.4884 134.85C48.8658 134.19 49.0162 133.327 49.0162 132.371H47.0162ZM53.2124 136.138L53.2145 135.138H53.2124V136.138ZM50.4106 132.371L49.4106 132.369V132.371H50.4106ZM51.7423 132.371L50.7423 132.369V132.369L51.7423 132.371ZM54.6862 132.371H55.6862L55.6862 132.369L54.6862 132.371ZM53.2104 137.138C54.3832 137.141 55.39 136.663 56.0723 135.749C56.7265 134.874 57.0143 133.692 57.0143 132.371H55.0143C55.0143 133.435 54.7783 134.14 54.4701 134.552C54.19 134.927 53.7959 135.14 53.2145 135.138L53.2104 137.138ZM57.0143 132.371C57.0143 131.054 56.7236 129.878 56.067 129.008C55.3832 128.101 54.3781 127.628 53.2124 127.628V129.628C53.7939 129.628 54.1898 129.84 54.4702 130.212C54.7776 130.62 55.0143 131.316 55.0143 132.371H57.0143ZM53.2124 127.628C52.0473 127.628 51.0428 128.1 50.3592 129.006C49.703 129.877 49.4126 131.052 49.4106 132.369L51.4106 132.372C51.4122 131.314 51.6491 130.618 51.9561 130.21C52.2358 129.84 52.6304 129.628 53.2124 129.628V127.628ZM49.4106 132.371C49.4106 133.691 49.6985 134.871 50.3526 135.747C51.0344 136.659 52.0403 137.138 53.2124 137.138V135.138C52.6303 135.138 52.2353 134.925 51.9548 134.55C51.6465 134.137 51.4106 133.433 51.4106 132.371H49.4106ZM53.2124 134.027C53.1658 134.027 53.1062 134.035 53.0046 133.858C52.8725 133.627 52.7407 133.162 52.7423 132.373L50.7423 132.369C50.7403 133.326 50.8908 134.19 51.2683 134.85C51.6763 135.564 52.3535 136.027 53.2124 136.027V134.027ZM52.7423 132.373C52.7439 131.59 52.8759 131.126 53.0085 130.895C53.1115 130.714 53.1709 130.725 53.2124 130.725V128.725C52.352 128.725 51.6781 129.192 51.2724 129.902C50.8963 130.559 50.7442 131.418 50.7423 132.369L52.7423 132.373ZM53.2124 130.725C53.2573 130.725 53.3172 130.716 53.4198 130.895C53.5525 131.127 53.6846 131.59 53.6862 132.373L55.6862 132.369C55.6842 131.418 55.5322 130.559 55.1553 129.901C54.7483 129.191 54.0731 128.725 53.2124 128.725V130.725ZM53.6862 132.371C53.6862 133.161 53.5543 133.626 53.4221 133.858C53.321 134.035 53.2616 134.027 53.2124 134.027V136.027C54.0724 136.027 54.7499 135.565 55.1584 134.85C55.5357 134.19 55.6862 133.327 55.6862 132.371H53.6862ZM60.1523 128.727H61.1523V127.727H60.1523V128.727ZM58.8987 128.727V127.727H58.6052L58.3582 127.886L58.8987 128.727ZM57.0912 129.888L56.5507 129.047L56.0912 129.342V129.888H57.0912ZM57.0912 131.096H56.0912V132.921L57.6295 131.939L57.0912 131.096ZM58.7922 130.009V129.009H58.5L58.2538 129.167L58.7922 130.009ZM58.8348 130.009H59.8348V129.009H58.8348V130.009ZM58.8348 136H57.8348V137H58.8348V136ZM60.1523 136V137H61.1523V136H60.1523ZM60.1523 127.727H58.8987V129.727H60.1523V127.727ZM58.3582 127.886L56.5507 129.047L57.6317 130.73L59.4392 129.569L58.3582 127.886ZM56.0912 129.888V131.096H58.0912V129.888H56.0912ZM57.6295 131.939L59.3305 130.852L58.2538 129.167L56.5528 130.253L57.6295 131.939ZM58.7922 131.009H58.8348V129.009H58.7922V131.009ZM57.8348 130.009V136H59.8348V130.009H57.8348ZM58.8348 137H60.1523V135H58.8348V137ZM61.1523 136V128.727H59.1523V136H61.1523ZM64.6871 136.138L64.6891 135.138H64.6871V136.138ZM61.8852 132.371L60.8852 132.369V132.371H61.8852ZM63.2169 132.371L62.2169 132.369V132.369L63.2169 132.371ZM66.1608 132.371H67.1608L67.1608 132.369L66.1608 132.371ZM64.685 137.138C65.8578 137.141 66.8647 136.663 67.547 135.749C68.2011 134.874 68.4889 133.692 68.4889 132.371H66.4889C66.4889 133.435 66.2529 134.14 65.9447 134.552C65.6646 134.927 65.2705 135.14 64.6891 135.138L64.685 137.138ZM68.4889 132.371C68.4889 131.054 68.1983 129.878 67.5416 129.008C66.8578 128.101 65.8527 127.628 64.6871 127.628V129.628C65.2685 129.628 65.6644 129.84 65.9448 130.212C66.2522 130.62 66.4889 131.316 66.4889 132.371H68.4889ZM64.6871 127.628C63.5219 127.628 62.5174 128.1 61.8338 129.006C61.1776 129.877 60.8872 131.052 60.8852 132.369L62.8852 132.372C62.8868 131.314 63.1237 130.618 63.4307 130.21C63.7104 129.84 64.105 129.628 64.6871 129.628V127.628ZM60.8852 132.371C60.8852 133.691 61.1731 134.871 61.8272 135.747C62.509 136.659 63.5149 137.138 64.6871 137.138V135.138C64.1049 135.138 63.7099 134.925 63.4294 134.55C63.1211 134.137 62.8852 133.433 62.8852 132.371H60.8852ZM64.6871 134.027C64.6405 134.027 64.5808 134.035 64.4792 133.858C64.3471 133.627 64.2153 133.162 64.2169 132.373L62.2169 132.369C62.2149 133.326 62.3654 134.19 62.7429 134.85C63.151 135.564 63.8281 136.027 64.6871 136.027V134.027ZM64.2169 132.373C64.2185 131.59 64.3505 131.126 64.4831 130.895C64.5861 130.714 64.6455 130.725 64.6871 130.725V128.725C63.8266 128.725 63.1527 129.192 62.747 129.902C62.3709 130.559 62.2188 131.418 62.2169 132.369L64.2169 132.373ZM64.6871 130.725C64.7319 130.725 64.7918 130.716 64.8945 130.895C65.0271 131.127 65.1592 131.59 65.1608 132.373L67.1608 132.369C67.1588 131.418 67.0068 130.559 66.6299 129.901C66.2229 129.191 65.5477 128.725 64.6871 128.725V130.725ZM65.1608 132.371C65.1608 133.161 65.0289 133.626 64.8967 133.858C64.7956 134.035 64.7362 134.027 64.6871 134.027V136.027C65.547 136.027 66.2245 135.565 66.633 134.85C67.0103 134.19 67.1608 133.327 67.1608 132.371H65.1608ZM71.357 136.138L71.359 135.138H71.357V136.138ZM68.5551 132.371L67.5551 132.369V132.371H68.5551ZM69.8868 132.371L68.8868 132.369V132.369L69.8868 132.371ZM72.8307 132.371H73.8307L73.8307 132.369L72.8307 132.371ZM71.355 137.138C72.5278 137.141 73.5346 136.663 74.2169 135.749C74.8711 134.874 75.1588 133.692 75.1588 132.371H73.1588C73.1588 133.435 72.9228 134.14 72.6146 134.552C72.3346 134.927 71.9405 135.14 71.359 135.138L71.355 137.138ZM75.1588 132.371C75.1588 131.054 74.8682 129.878 74.2115 129.008C73.5277 128.101 72.5227 127.628 71.357 127.628V129.628C71.9385 129.628 72.3343 129.84 72.6147 130.212C72.9221 130.62 73.1588 131.316 73.1588 132.371H75.1588ZM71.357 127.628C70.1919 127.628 69.1874 128.1 68.5037 129.006C67.8476 129.877 67.5571 131.052 67.5551 132.369L69.5551 132.372C69.5567 131.314 69.7936 130.618 70.1007 130.21C70.3803 129.84 70.7749 129.628 71.357 129.628V127.628ZM67.5551 132.371C67.5551 133.691 67.8431 134.871 68.4971 135.747C69.1789 136.659 70.1848 137.138 71.357 137.138V135.138C70.7749 135.138 70.3798 134.925 70.0993 134.55C69.791 134.137 69.5551 133.433 69.5551 132.371H67.5551ZM71.357 134.027C71.3104 134.027 71.2507 134.035 71.1491 133.858C71.0171 133.627 70.8852 133.162 70.8868 132.373L68.8868 132.369C68.8849 133.326 69.0353 134.19 69.4128 134.85C69.8209 135.564 70.498 136.027 71.357 136.027V134.027ZM70.8868 132.373C70.8884 131.59 71.0204 131.126 71.1531 130.895C71.256 130.714 71.3155 130.725 71.357 130.725V128.725C70.4965 128.725 69.8226 129.192 69.4169 129.902C69.0409 130.559 68.8888 131.418 68.8868 132.369L70.8868 132.373ZM71.357 130.725C71.4018 130.725 71.4617 130.716 71.5644 130.895C71.6971 131.127 71.8291 131.59 71.8307 132.373L73.8307 132.369C73.8288 131.418 73.6767 130.559 73.2998 129.901C72.8928 129.191 72.2177 128.725 71.357 128.725V130.725ZM71.8307 132.371C71.8307 133.161 71.6988 133.626 71.5666 133.858C71.4655 134.035 71.4062 134.027 71.357 134.027V136.027C72.2169 136.027 72.8944 135.565 73.3029 134.85C73.6803 134.19 73.8307 133.327 73.8307 132.371H71.8307ZM80.5074 136.138L80.5094 135.138H80.5074V136.138ZM77.7055 132.371L76.7055 132.369V132.371H77.7055ZM79.0372 132.371L78.0372 132.369V132.369L79.0372 132.371ZM81.9811 132.371H82.9811L82.9811 132.369L81.9811 132.371ZM80.5053 137.138C81.6781 137.141 82.685 136.663 83.3673 135.749C84.0215 134.874 84.3092 133.692 84.3092 132.371H82.3092C82.3092 133.435 82.0732 134.14 81.765 134.552C81.485 134.927 81.0909 135.14 80.5094 135.138L80.5053 137.138ZM84.3092 132.371C84.3092 131.054 84.0186 129.878 83.3619 129.008C82.6781 128.101 81.673 127.628 80.5074 127.628V129.628C81.0889 129.628 81.4847 129.84 81.7651 130.212C82.0725 130.62 82.3092 131.316 82.3092 132.371H84.3092ZM80.5074 127.628C79.3423 127.628 78.3378 128.1 77.6541 129.006C76.9979 129.877 76.7075 131.052 76.7055 132.369L78.7055 132.372C78.7071 131.314 78.944 130.618 79.2511 130.21C79.5307 129.84 79.9253 129.628 80.5074 129.628V127.628ZM76.7055 132.371C76.7055 133.691 76.9934 134.871 77.6475 135.747C78.3293 136.659 79.3352 137.138 80.5074 137.138V135.138C79.9253 135.138 79.5302 134.925 79.2497 134.55C78.9414 134.137 78.7055 133.433 78.7055 132.371H76.7055ZM80.5074 134.027C80.4608 134.027 80.4011 134.035 80.2995 133.858C80.1675 133.627 80.0356 133.162 80.0372 132.373L78.0372 132.369C78.0353 133.326 78.1857 134.19 78.5632 134.85C78.9713 135.564 79.6484 136.027 80.5074 136.027V134.027ZM80.0372 132.373C80.0388 131.59 80.1708 131.126 80.3035 130.895C80.4064 130.714 80.4658 130.725 80.5074 130.725V128.725C79.6469 128.725 78.973 129.192 78.5673 129.902C78.1912 130.559 78.0391 131.418 78.0372 132.369L80.0372 132.373ZM80.5074 130.725C80.5522 130.725 80.6121 130.716 80.7148 130.895C80.8475 131.127 80.9795 131.59 80.9811 132.373L82.9811 132.369C82.9791 131.418 82.8271 130.559 82.4502 129.901C82.0432 129.191 81.3681 128.725 80.5074 128.725V130.725ZM80.9811 132.371C80.9811 133.161 80.8492 133.626 80.717 133.858C80.6159 134.035 80.5565 134.027 80.5074 134.027V136.027C81.3673 136.027 82.0448 135.565 82.4533 134.85C82.8306 134.19 82.9811 133.327 82.9811 132.371H80.9811ZM87.4472 128.727H88.4472V127.727H87.4472V128.727ZM86.1936 128.727V127.727H85.9001L85.6531 127.886L86.1936 128.727ZM84.3861 129.888L83.8456 129.047L83.3861 129.342V129.888H84.3861ZM84.3861 131.096H83.3861V132.921L84.9245 131.939L84.3861 131.096ZM86.0871 130.009V129.009H85.7949L85.5487 129.167L86.0871 130.009ZM86.1297 130.009H87.1297V129.009H86.1297V130.009ZM86.1297 136H85.1297V137H86.1297V136ZM87.4472 136V137H88.4472V136H87.4472ZM87.4472 127.727H86.1936V129.727H87.4472V127.727ZM85.6531 127.886L83.8456 129.047L84.9266 130.73L86.7341 129.569L85.6531 127.886ZM83.3861 129.888V131.096H85.3861V129.888H83.3861ZM84.9245 131.939L86.6255 130.852L85.5487 129.167L83.8477 130.253L84.9245 131.939ZM86.0871 131.009H86.1297V129.009H86.0871V131.009ZM85.1297 130.009V136H87.1297V130.009H85.1297ZM86.1297 137H87.4472V135H86.1297V137ZM88.4472 136V128.727H86.4472V136H88.4472ZM92.2519 128.727H93.2519V127.727H92.2519V128.727ZM90.9983 128.727V127.727H90.7048L90.4578 127.886L90.9983 128.727ZM89.1908 129.888L88.6503 129.047L88.1908 129.342V129.888H89.1908ZM89.1908 131.096H88.1908V132.921L89.7291 131.939L89.1908 131.096ZM90.8918 130.009V129.009H90.5996L90.3534 129.167L90.8918 130.009ZM90.9344 130.009H91.9344V129.009H90.9344V130.009ZM90.9344 136H89.9344V137H90.9344V136ZM92.2519 136V137H93.2519V136H92.2519ZM92.2519 127.727H90.9983V129.727H92.2519V127.727ZM90.4578 127.886L88.6503 129.047L89.7313 130.73L91.5388 129.569L90.4578 127.886ZM88.1908 129.888V131.096H90.1908V129.888H88.1908ZM89.7291 131.939L91.4301 130.852L90.3534 129.167L88.6524 130.253L89.7291 131.939ZM90.8918 131.009H90.9344V129.009H90.8918V131.009ZM89.9344 130.009V136H91.9344V130.009H89.9344ZM90.9344 137H92.2519V135H90.9344V137ZM93.2519 136V128.727H91.2519V136H93.2519ZM96.7867 136.138L96.7887 135.138H96.7867V136.138ZM93.9848 132.371L92.9848 132.369V132.371H93.9848ZM95.3165 132.371L94.3165 132.369V132.369L95.3165 132.371ZM98.2604 132.371H99.2604L99.2604 132.369L98.2604 132.371ZM96.7846 137.138C97.9574 137.141 98.9643 136.663 99.6466 135.749C100.301 134.874 100.589 133.692 100.589 132.371H98.5885C98.5885 133.435 98.3525 134.14 98.0443 134.552C97.7643 134.927 97.3702 135.14 96.7887 135.138L96.7846 137.138ZM100.589 132.371C100.589 131.054 100.298 129.878 99.6412 129.008C98.9574 128.101 97.9523 127.628 96.7867 127.628V129.628C97.3681 129.628 97.764 129.84 98.0444 130.212C98.3518 130.62 98.5885 131.316 98.5885 132.371H100.589ZM96.7867 127.628C95.6216 127.628 94.6171 128.1 93.9334 129.006C93.2772 129.877 92.9868 131.052 92.9848 132.369L94.9848 132.372C94.9864 131.314 95.2233 130.618 95.5304 130.21C95.81 129.84 96.2046 129.628 96.7867 129.628V127.628ZM92.9848 132.371C92.9848 133.691 93.2727 134.871 93.9268 135.747C94.6086 136.659 95.6145 137.138 96.7867 137.138V135.138C96.2045 135.138 95.8095 134.925 95.529 134.55C95.2207 134.137 94.9848 133.433 94.9848 132.371H92.9848ZM96.7867 134.027C96.7401 134.027 96.6804 134.035 96.5788 133.858C96.4468 133.627 96.3149 133.162 96.3165 132.373L94.3165 132.369C94.3146 133.326 94.465 134.19 94.8425 134.85C95.2506 135.564 95.9277 136.027 96.7867 136.027V134.027ZM96.3165 132.373C96.3181 131.59 96.4501 131.126 96.5827 130.895C96.6857 130.714 96.7451 130.725 96.7867 130.725V128.725C95.9262 128.725 95.2523 129.192 94.8466 129.902C94.4705 130.559 94.3184 131.418 94.3165 132.369L96.3165 132.373ZM96.7867 130.725C96.8315 130.725 96.8914 130.716 96.9941 130.895C97.1268 131.127 97.2588 131.59 97.2604 132.373L99.2604 132.369C99.2584 131.418 99.1064 130.559 98.7295 129.901C98.3225 129.191 97.6474 128.725 96.7867 128.725V130.725ZM97.2604 132.371C97.2604 133.161 97.1285 133.626 96.9963 133.858C96.8952 134.035 96.8358 134.027 96.7867 134.027V136.027C97.6466 136.027 98.3241 135.565 98.7326 134.85C99.1099 134.19 99.2604 133.327 99.2604 132.371H97.2604ZM103.457 136.138L103.459 135.138H103.457V136.138ZM100.655 132.371L99.6547 132.369V132.371H100.655ZM101.986 132.371L100.986 132.369V132.369L101.986 132.371ZM104.93 132.371H105.93L105.93 132.369L104.93 132.371ZM103.455 137.138C104.627 137.141 105.634 136.663 106.316 135.749C106.971 134.874 107.258 133.692 107.258 132.371H105.258C105.258 133.435 105.022 134.14 104.714 134.552C104.434 134.927 104.04 135.14 103.459 135.138L103.455 137.138ZM107.258 132.371C107.258 131.054 106.968 129.878 106.311 129.008C105.627 128.101 104.622 127.628 103.457 127.628V129.628C104.038 129.628 104.434 129.84 104.714 130.212C105.022 130.62 105.258 131.316 105.258 132.371H107.258ZM103.457 127.628C102.291 127.628 101.287 128.1 100.603 129.006C99.9472 129.877 99.6567 131.052 99.6547 132.369L101.655 132.372C101.656 131.314 101.893 130.618 102.2 130.21C102.48 129.84 102.875 129.628 103.457 129.628V127.628ZM99.6547 132.371C99.6547 133.691 99.9427 134.871 100.597 135.747C101.279 136.659 102.284 137.138 103.457 137.138V135.138C102.874 135.138 102.479 134.925 102.199 134.55C101.891 134.137 101.655 133.433 101.655 132.371H99.6547ZM103.457 134.027C103.41 134.027 103.35 134.035 103.249 133.858C103.117 133.627 102.985 133.162 102.986 132.373L100.986 132.369C100.984 133.326 101.135 134.19 101.512 134.85C101.92 135.564 102.598 136.027 103.457 136.027V134.027ZM102.986 132.373C102.988 131.59 103.12 131.126 103.253 130.895C103.356 130.714 103.415 130.725 103.457 130.725V128.725C102.596 128.725 101.922 129.192 101.517 129.902C101.14 130.559 100.988 131.418 100.986 132.369L102.986 132.373ZM103.457 130.725C103.501 130.725 103.561 130.716 103.664 130.895C103.797 131.127 103.929 131.59 103.93 132.373L105.93 132.369C105.928 131.418 105.776 130.559 105.399 129.901C104.992 129.191 104.317 128.725 103.457 128.725V130.725ZM103.93 132.371C103.93 133.161 103.798 133.626 103.666 133.858C103.565 134.035 103.506 134.027 103.457 134.027V136.027C104.316 136.027 104.994 135.565 105.402 134.85C105.78 134.19 105.93 133.327 105.93 132.371H103.93ZM110.396 128.727H111.396V127.727H110.396V128.727ZM109.143 128.727V127.727H108.849L108.602 127.886L109.143 128.727ZM107.335 129.888L106.795 129.047L106.335 129.342V129.888H107.335ZM107.335 131.096H106.335V132.921L107.874 131.939L107.335 131.096ZM109.036 130.009V129.009H108.744L108.498 129.167L109.036 130.009ZM109.079 130.009H110.079V129.009H109.079V130.009ZM109.079 136H108.079V137H109.079V136ZM110.396 136V137H111.396V136H110.396ZM110.396 127.727H109.143V129.727H110.396V127.727ZM108.602 127.886L106.795 129.047L107.876 130.73L109.683 129.569L108.602 127.886ZM106.335 129.888V131.096H108.335V129.888H106.335ZM107.874 131.939L109.575 130.852L108.498 129.167L106.797 130.253L107.874 131.939ZM109.036 131.009H109.079V129.009H109.036V131.009ZM108.079 130.009V136H110.079V130.009H108.079ZM109.079 137H110.396V135H109.079V137ZM111.396 136V128.727H109.396V136H111.396ZM114.931 136.138L114.933 135.138H114.931V136.138ZM112.129 132.371L111.129 132.369V132.371H112.129ZM113.461 132.371L112.461 132.369V132.369L113.461 132.371ZM116.405 132.371H117.405L117.405 132.369L116.405 132.371ZM114.929 137.138C116.102 137.141 117.109 136.663 117.791 135.749C118.445 134.874 118.733 133.692 118.733 132.371H116.733C116.733 133.435 116.497 134.14 116.189 134.552C115.909 134.927 115.515 135.14 114.933 135.138L114.929 137.138ZM118.733 132.371C118.733 131.054 118.442 129.878 117.786 129.008C117.102 128.101 116.097 127.628 114.931 127.628V129.628C115.513 129.628 115.909 129.84 116.189 130.212C116.496 130.62 116.733 131.316 116.733 132.371H118.733ZM114.931 127.628C113.766 127.628 112.762 128.1 112.078 129.006C111.422 129.877 111.131 131.052 111.129 132.369L113.129 132.372C113.131 131.314 113.368 130.618 113.675 130.21C113.954 129.84 114.349 129.628 114.931 129.628V127.628ZM111.129 132.371C111.129 133.691 111.417 134.871 112.071 135.747C112.753 136.659 113.759 137.138 114.931 137.138V135.138C114.349 135.138 113.954 134.925 113.674 134.55C113.365 134.137 113.129 133.433 113.129 132.371H111.129ZM114.931 134.027C114.885 134.027 114.825 134.035 114.723 133.858C114.591 133.627 114.459 133.162 114.461 132.373L112.461 132.369C112.459 133.326 112.61 134.19 112.987 134.85C113.395 135.564 114.072 136.027 114.931 136.027V134.027ZM114.461 132.373C114.463 131.59 114.595 131.126 114.727 130.895C114.83 130.714 114.89 130.725 114.931 130.725V128.725C114.071 128.725 113.397 129.192 112.991 129.902C112.615 130.559 112.463 131.418 112.461 132.369L114.461 132.373ZM114.931 130.725C114.976 130.725 115.036 130.716 115.139 130.895C115.271 131.127 115.403 131.59 115.405 132.373L117.405 132.369C117.403 131.418 117.251 130.559 116.874 129.901C116.467 129.191 115.792 128.725 114.931 128.725V130.725ZM115.405 132.371C115.405 133.161 115.273 133.626 115.141 133.858C115.04 134.035 114.98 134.027 114.931 134.027V136.027C115.791 136.027 116.469 135.565 116.877 134.85C117.254 134.19 117.405 133.327 117.405 132.371H115.405ZM121.871 128.727H122.871V127.727H121.871V128.727ZM120.617 128.727V127.727H120.324L120.077 127.886L120.617 128.727ZM118.81 129.888L118.269 129.047L117.81 129.342V129.888H118.81ZM118.81 131.096H117.81V132.921L119.348 131.939L118.81 131.096ZM120.511 130.009V129.009H120.219L119.973 129.167L120.511 130.009ZM120.554 130.009H121.554V129.009H120.554V130.009ZM120.554 136H119.554V137H120.554V136ZM121.871 136V137H122.871V136H121.871ZM121.871 127.727H120.617V129.727H121.871V127.727ZM120.077 127.886L118.269 129.047L119.35 130.73L121.158 129.569L120.077 127.886ZM117.81 129.888V131.096H119.81V129.888H117.81ZM119.348 131.939L121.049 130.852L119.973 129.167L118.272 130.253L119.348 131.939ZM120.511 131.009H120.554V129.009H120.511V131.009ZM119.554 130.009V136H121.554V130.009H119.554ZM120.554 137H121.871V135H120.554V137ZM122.871 136V128.727H120.871V136H122.871Z" fill="#E4E7EB"/>
<rect x="95.5" y="64.5" width="149" height="174" rx="4.5" fill="#1F2933" stroke="#CBD2D9"/>
<rect x="134.5" y="109.5" width="71" height="53" rx="1.5" fill="#1F2933" stroke="#F5F7FA"/>
<rect x="146.5" y="168.5" width="47" height="3" rx="1.5" fill="#323F4B" stroke="#F5F7FA"/>
<rect x="146.5" y="177.5" width="47" height="3" rx="1.5" fill="#1F2933" stroke="#F5F7FA"/>
<rect x="154.5" y="189.5" width="31" height="7" rx="1.5" fill="#1F2933" stroke="#F5F7FA"/>
</svg>
