<svg width="24" height="30" viewBox="0 0 24 30" fill="none" xmlns="http://www.w3.org/2000/svg">
<path fill-rule="evenodd" clip-rule="evenodd" d="M1.36548 13.5065C1.31863 13.5065 1.87909 14.6925 1.89471 14.6925C3.11801 16.8754 5.47611 18.2323 9.45401 18.6088C8.8866 19.0322 8.20468 19.8356 8.11011 20.7639C7.39609 21.2177 5.96023 21.3678 4.84451 21.0216C3.28025 20.5366 2.68161 17.494 0.339988 17.9278C-0.166684 18.0206 -0.0660432 18.3494 0.372089 18.6297C1.08611 19.0834 1.75763 19.6517 2.27558 20.8602C2.6738 21.7886 3.51016 23.4465 6.1563 23.4465C7.20609 23.4465 7.9418 23.3225 7.9418 23.3225C7.9418 23.3225 7.96175 25.6918 7.96175 26.6132C7.96175 27.676 6.50247 27.9753 6.50247 28.4863C6.50247 28.6885 6.98572 28.7076 7.37353 28.7076C8.14048 28.7076 9.73597 28.0786 9.73597 26.9741C9.73597 26.097 9.75072 23.1481 9.75072 22.631C9.75072 21.5031 10.3658 21.1457 10.3658 21.1457C10.3658 21.1457 10.4422 27.1667 10.2192 27.9753C9.95721 28.9245 9.48437 28.79 9.48437 29.2134C9.48437 29.8433 11.4052 29.3687 12.042 27.9849C12.5339 26.9099 12.3188 21.0008 12.3188 21.0008L12.8437 20.9904C12.8437 20.9904 12.8732 23.6946 12.855 24.931C12.8367 26.2115 12.7491 27.8304 13.523 28.5939C14.0314 29.0963 15.6781 29.9769 15.6781 29.1717C15.6781 28.7041 14.7758 28.3198 14.7758 27.054V21.2281C15.4968 21.2281 15.3883 23.1437 15.3883 23.1437L15.4412 26.7034C15.4412 26.7034 15.2816 27.9996 16.8684 28.5419C17.428 28.7353 18.6253 28.7874 18.6817 28.4638C18.7381 28.1402 17.2397 27.6587 17.2259 26.6557C17.2172 26.0423 17.2536 25.6849 17.2536 23.0231C17.2536 20.3614 16.8901 19.3775 15.6226 18.5932C19.5337 18.1985 21.9551 17.2476 23.1341 14.7012C23.2261 14.7038 23.6157 13.5118 23.5645 13.5118C23.8291 12.5505 23.9722 11.4131 24 10.0666C23.9931 6.41401 22.2145 5.12217 21.8735 4.51572C22.3767 1.75072 21.7885 0.492712 21.5161 0.0606527C20.508 -0.291588 18.0102 0.967283 16.6446 1.85396C14.4201 1.21455 9.71602 1.27614 7.95221 2.0188C4.69789 -0.270766 2.97572 0.0797391 2.97572 0.0797391C2.97572 0.0797391 1.86261 2.03962 2.68161 4.90787C1.611 6.24917 0.812824 7.19831 0.812824 9.71345C0.812824 11.1311 0.98287 12.3995 1.36548 13.5065Z" fill="#F5F7FA"/>
</svg>
