<svg width="24" height="24" viewBox="0 0 24 24" fill="none" xmlns="http://www.w3.org/2000/svg">
<path fill-rule="evenodd" clip-rule="evenodd" d="M5.03448 24V8.12784H0.150671V24H5.03448ZM5.03448 2.50186C5.00539 1.08147 4.06297 0 2.53198 0C1.0006 0 0 1.08147 0 2.50186C0 3.89141 0.97151 5.00416 2.47341 5.00416H2.50249C4.06297 5.00416 5.03448 3.89141 5.03448 2.50186ZM13.0021 24V14.9568C13.0021 14.4728 13.037 13.9889 13.1786 13.6438C13.566 12.6764 14.4476 11.6749 15.9279 11.6749C17.8671 11.6749 19.0832 12.7804 19.0832 14.9568V24H24V14.7148C24 9.74088 21.3567 7.42641 17.8308 7.42641C14.9399 7.42641 13.671 9.0499 12.9664 10.1549L13.0017 8.03206H8.09339C8.164 9.55156 8.09339 24 8.09339 24H13.0021Z" fill="#F5F7FA"/>
</svg>
